<mxfile host="65bd71144e">
    <diagram id="rUQwwSGyVkCTrhEqcze_" name="V1">
        <mxGraphModel dx="5235" dy="4700" grid="1" gridSize="10" guides="1" tooltips="1" connect="1" arrows="1" fold="1" page="0" pageScale="1" pageWidth="827" pageHeight="1169" background="none" math="0" shadow="0">
            <root>
                <mxCell id="0"/>
                <mxCell id="1" parent="0"/>
                <mxCell id="257" value="" style="rounded=0;whiteSpace=wrap;html=1;fontColor=#000033;strokeColor=#FFFFFF;fillColor=none;" parent="1" vertex="1">
                    <mxGeometry x="2640" y="-840" width="680" height="170" as="geometry"/>
                </mxCell>
                <mxCell id="274" value="" style="rounded=0;whiteSpace=wrap;html=1;fontColor=#000033;strokeColor=#FFFFFF;fillColor=none;" parent="1" vertex="1">
                    <mxGeometry x="2640" y="-600" width="1080" height="160" as="geometry"/>
                </mxCell>
                <mxCell id="324" value="" style="rounded=0;whiteSpace=wrap;html=1;fontColor=#000033;strokeColor=#FFFFFF;fillColor=none;" parent="1" vertex="1">
                    <mxGeometry x="-560" y="-2540" width="680" height="460" as="geometry"/>
                </mxCell>
                <mxCell id="306" value="" style="rounded=0;whiteSpace=wrap;html=1;fontColor=#000033;strokeColor=#FFFFFF;fillColor=none;" parent="1" vertex="1">
                    <mxGeometry x="2720" y="-1630" width="520" height="170" as="geometry"/>
                </mxCell>
                <mxCell id="267" value="Termos de serviço" style="rounded=1;whiteSpace=wrap;html=1;fillColor=#CCCCCC;fontStyle=0;strokeColor=#000000;fontColor=#000000;" parent="1" vertex="1">
                    <mxGeometry x="3153" y="-780" width="140" height="30" as="geometry"/>
                </mxCell>
                <mxCell id="268" value="Resumo do cadastro" style="rounded=1;whiteSpace=wrap;html=1;fillColor=#CCCCCC;fontStyle=0;strokeColor=#000000;fontColor=#000000;" parent="1" vertex="1">
                    <mxGeometry x="2992" y="-780" width="140" height="30" as="geometry"/>
                </mxCell>
                <mxCell id="265" value="Envio de documentos" style="rounded=1;whiteSpace=wrap;html=1;fillColor=#CCCCCC;fontStyle=0;strokeColor=#000000;fontColor=#000000;" parent="1" vertex="1">
                    <mxGeometry x="2831" y="-780" width="140" height="30" as="geometry"/>
                </mxCell>
                <mxCell id="264" value="Cadastro credor" style="rounded=1;whiteSpace=wrap;html=1;fillColor=#CCCCCC;fontStyle=0;strokeColor=#000000;fontColor=#000000;" parent="1" vertex="1">
                    <mxGeometry x="2670" y="-780" width="140" height="30" as="geometry"/>
                </mxCell>
                <mxCell id="553" style="edgeStyle=none;html=1;entryX=0;entryY=0.5;entryDx=0;entryDy=0;strokeColor=#FFFF99;strokeWidth=2;exitX=1;exitY=0.5;exitDx=0;exitDy=0;" edge="1" parent="1" source="286" target="463">
                    <mxGeometry relative="1" as="geometry">
                        <Array as="points">
                            <mxPoint x="3760" y="-525"/>
                            <mxPoint x="3760" y="-180"/>
                        </Array>
                    </mxGeometry>
                </mxCell>
                <mxCell id="286" value="Resumo do cadastro" style="rounded=1;whiteSpace=wrap;html=1;fillColor=#FFFFCC;fontStyle=0;strokeColor=#B09500;fontColor=#000000;" parent="1" vertex="1">
                    <mxGeometry x="3542" y="-540" width="140" height="30" as="geometry"/>
                </mxCell>
                <mxCell id="285" value="Escolha do serviço" style="rounded=1;whiteSpace=wrap;html=1;fillColor=#FFFFCC;fontStyle=0;strokeColor=#B09500;fontColor=#000000;" parent="1" vertex="1">
                    <mxGeometry x="3381" y="-540" width="140" height="30" as="geometry"/>
                </mxCell>
                <mxCell id="283" value="Editar ou adicionar outro devedor" style="rounded=1;whiteSpace=wrap;html=1;fillColor=#FFFFCC;fontStyle=0;strokeColor=#B09500;fontColor=#000000;" parent="1" vertex="1">
                    <mxGeometry x="3153" y="-540" width="207" height="30" as="geometry"/>
                </mxCell>
                <mxCell id="284" value="Cadastro do devedor" style="rounded=1;whiteSpace=wrap;html=1;fillColor=#FFFFCC;fontStyle=0;strokeColor=#B09500;fontColor=#000000;" parent="1" vertex="1">
                    <mxGeometry x="2992" y="-540" width="140" height="30" as="geometry"/>
                </mxCell>
                <mxCell id="282" value="Cadastro da dívida" style="rounded=1;whiteSpace=wrap;html=1;fillColor=#FFFFCC;fontStyle=0;strokeColor=#B09500;fontColor=#000000;" parent="1" vertex="1">
                    <mxGeometry x="2831" y="-540" width="140" height="30" as="geometry"/>
                </mxCell>
                <mxCell id="281" value="Perfil do credor" style="rounded=1;whiteSpace=wrap;html=1;fillColor=#FFFFCC;fontStyle=0;strokeColor=#B09500;fontColor=#000000;" parent="1" vertex="1">
                    <mxGeometry x="2670" y="-540" width="140" height="30" as="geometry"/>
                </mxCell>
                <mxCell id="287" style="edgeStyle=none;html=1;entryX=0.75;entryY=0;entryDx=0;entryDy=0;fontSize=12;fontColor=#000000;strokeColor=#FFFF99;strokeWidth=2;exitX=1;exitY=0.5;exitDx=0;exitDy=0;" parent="1" source="267" target="275" edge="1">
                    <mxGeometry relative="1" as="geometry">
                        <Array as="points">
                            <mxPoint x="3450" y="-765"/>
                        </Array>
                        <mxPoint x="3370" y="-720" as="sourcePoint"/>
                    </mxGeometry>
                </mxCell>
                <mxCell id="176" value="" style="rounded=0;whiteSpace=wrap;html=1;fontColor=#000033;strokeColor=#FFFFFF;fillColor=none;" parent="1" vertex="1">
                    <mxGeometry x="-1980" y="-2540" width="740" height="550" as="geometry"/>
                </mxCell>
                <mxCell id="151" value="" style="rounded=0;whiteSpace=wrap;html=1;fontColor=#000033;strokeColor=#FFFFFF;fillColor=none;" parent="1" vertex="1">
                    <mxGeometry x="1190" y="-673" width="324.5" height="100" as="geometry"/>
                </mxCell>
                <mxCell id="150" value="" style="rounded=0;whiteSpace=wrap;html=1;fontColor=#000033;strokeColor=#FFFFFF;fillColor=none;" parent="1" vertex="1">
                    <mxGeometry x="240" y="-910" width="820" height="230" as="geometry"/>
                </mxCell>
                <mxCell id="3" value="Módulo Institucional" style="rounded=1;whiteSpace=wrap;html=1;fillColor=#0050ef;strokeColor=#001DBC;fontColor=#ffffff;fontStyle=1" parent="1" vertex="1">
                    <mxGeometry x="-1940" y="-2270" width="192" height="60" as="geometry"/>
                </mxCell>
                <mxCell id="5" value="Menu Top" style="rounded=0;whiteSpace=wrap;html=1;fillColor=#0050ef;fontStyle=1;fontColor=#ffffff;strokeColor=#001DBC;" parent="1" vertex="1">
                    <mxGeometry x="240" y="-910" width="820" height="40" as="geometry"/>
                </mxCell>
                <mxCell id="8" value="Acessibilidade" style="rounded=1;whiteSpace=wrap;html=1;fillColor=#6a00ff;fontStyle=0;strokeColor=#3700CC;fontColor=#ffffff;" parent="1" vertex="1">
                    <mxGeometry x="350" y="-850" width="130" height="30" as="geometry"/>
                </mxCell>
                <mxCell id="9" value="O que é um protesto" style="rounded=1;whiteSpace=wrap;html=1;fillColor=#b1ddf0;fontStyle=0;strokeColor=#10739e;fontColor=#000000;" parent="1" vertex="1">
                    <mxGeometry x="490" y="-850" width="130" height="30" as="geometry"/>
                </mxCell>
                <mxCell id="10" value="Como solicitar" style="rounded=1;whiteSpace=wrap;html=1;fillColor=#b1ddf0;fontStyle=0;strokeColor=#10739e;fontColor=#000000;" parent="1" vertex="1">
                    <mxGeometry x="630" y="-850" width="130" height="30" as="geometry"/>
                </mxCell>
                <mxCell id="160" style="edgeStyle=none;html=1;entryX=0.5;entryY=0;entryDx=0;entryDy=0;fontColor=#000033;strokeColor=#00FFFF;strokeWidth=2;" parent="1" source="13" target="42" edge="1">
                    <mxGeometry relative="1" as="geometry">
                        <Array as="points">
                            <mxPoint x="837" y="-769"/>
                            <mxPoint x="1352" y="-769"/>
                        </Array>
                    </mxGeometry>
                </mxCell>
                <mxCell id="13" value="Cadastre-se" style="rounded=1;whiteSpace=wrap;html=1;fillColor=#d80073;fontStyle=0;strokeColor=#A50040;fontColor=#ffffff;" parent="1" vertex="1">
                    <mxGeometry x="772" y="-850" width="130" height="30" as="geometry"/>
                </mxCell>
                <mxCell id="159" style="edgeStyle=none;html=1;entryX=0.5;entryY=0;entryDx=0;entryDy=0;fontColor=#000033;strokeColor=#00FFFF;strokeWidth=2;" parent="1" source="14" target="44" edge="1">
                    <mxGeometry relative="1" as="geometry">
                        <Array as="points">
                            <mxPoint x="1955" y="-829"/>
                        </Array>
                    </mxGeometry>
                </mxCell>
                <mxCell id="14" value="Entrar" style="rounded=1;whiteSpace=wrap;html=1;fillColor=#d80073;fontStyle=0;strokeColor=#A50040;fontColor=#ffffff;" parent="1" vertex="1">
                    <mxGeometry x="911" y="-850" width="130" height="30" as="geometry"/>
                </mxCell>
                <mxCell id="138" value="" style="group" parent="1" vertex="1" connectable="0">
                    <mxGeometry x="260" y="-850" width="80" height="150" as="geometry"/>
                </mxCell>
                <mxCell id="7" value="Idioma" style="rounded=1;whiteSpace=wrap;html=1;fontStyle=0;" parent="138" vertex="1">
                    <mxGeometry width="80" height="30" as="geometry"/>
                </mxCell>
                <mxCell id="37" value="Português" style="rounded=1;whiteSpace=wrap;html=1;fontStyle=0;" parent="138" vertex="1">
                    <mxGeometry y="40" width="80" height="30" as="geometry"/>
                </mxCell>
                <mxCell id="38" value="Inglês" style="rounded=1;whiteSpace=wrap;html=1;fontStyle=0;" parent="138" vertex="1">
                    <mxGeometry y="80" width="80" height="30" as="geometry"/>
                </mxCell>
                <mxCell id="39" value="Espanhol" style="rounded=1;whiteSpace=wrap;html=1;fontStyle=0;" parent="138" vertex="1">
                    <mxGeometry y="120" width="80" height="30" as="geometry"/>
                </mxCell>
                <mxCell id="157" value="" style="group;strokeColor=#FFFFFF;container=0;" parent="1" vertex="1" connectable="0">
                    <mxGeometry x="-447" y="-290" width="1540" height="450" as="geometry"/>
                </mxCell>
                <mxCell id="158" value="" style="group" parent="1" vertex="1" connectable="0">
                    <mxGeometry x="-490" y="-909" width="691" height="114" as="geometry"/>
                </mxCell>
                <mxCell id="149" value="" style="rounded=0;whiteSpace=wrap;html=1;fontColor=#000033;strokeColor=#FFFFFF;fillColor=none;" parent="158" vertex="1">
                    <mxGeometry width="690" height="114" as="geometry"/>
                </mxCell>
                <mxCell id="24" value="Menu Nav" style="rounded=0;whiteSpace=wrap;html=1;fillColor=#0050ef;fontStyle=1;fontColor=#ffffff;strokeColor=#001DBC;" parent="158" vertex="1">
                    <mxGeometry width="691" height="40" as="geometry"/>
                </mxCell>
                <mxCell id="25" value="Ícone de início" style="rounded=1;whiteSpace=wrap;html=1;fillColor=#b1ddf0;fontStyle=0;strokeColor=#10739e;fontColor=#000000;" parent="158" vertex="1">
                    <mxGeometry x="30" y="60" width="106" height="30" as="geometry"/>
                </mxCell>
                <mxCell id="26" value="Quem somos" style="rounded=1;whiteSpace=wrap;html=1;fillColor=#b1ddf0;fontStyle=0;strokeColor=#10739e;fontColor=#000000;" parent="158" vertex="1">
                    <mxGeometry x="146" y="60" width="104" height="30" as="geometry"/>
                </mxCell>
                <mxCell id="27" value="Para o credor" style="rounded=1;whiteSpace=wrap;html=1;fillColor=#b1ddf0;fontStyle=0;strokeColor=#10739e;fontColor=#000000;" parent="158" vertex="1">
                    <mxGeometry x="261" y="60" width="104" height="30" as="geometry"/>
                </mxCell>
                <mxCell id="28" value="Para o devedor" style="rounded=1;whiteSpace=wrap;html=1;fillColor=#b1ddf0;fontStyle=0;strokeColor=#10739e;fontColor=#000000;" parent="158" vertex="1">
                    <mxGeometry x="377" y="60" width="109" height="30" as="geometry"/>
                </mxCell>
                <mxCell id="33" value="Validador" style="rounded=1;whiteSpace=wrap;html=1;fillColor=#a0522d;fontStyle=0;strokeColor=#6D1F00;fontColor=#ffffff;" parent="158" vertex="1">
                    <mxGeometry x="496" y="60" width="70" height="30" as="geometry"/>
                </mxCell>
                <mxCell id="34" value="Atendimento" style="rounded=1;whiteSpace=wrap;html=1;fillColor=#b1ddf0;fontStyle=0;strokeColor=#10739e;fontColor=#000000;" parent="158" vertex="1">
                    <mxGeometry x="576" y="60" width="84" height="30" as="geometry"/>
                </mxCell>
                <mxCell id="41" value="Módulo SSO" style="rounded=1;whiteSpace=wrap;html=1;fillColor=#d80073;strokeColor=#A50040;fontColor=#ffffff;fontStyle=1" parent="1" vertex="1">
                    <mxGeometry x="-1938" y="-2190" width="190" height="60" as="geometry"/>
                </mxCell>
                <mxCell id="46" value="Termos de uso" style="rounded=1;whiteSpace=wrap;html=1;fillColor=#FF99CC;strokeColor=#A50040;fontColor=#99004D;fontStyle=0" parent="1" vertex="1">
                    <mxGeometry x="1210" y="-623" width="111" height="30" as="geometry"/>
                </mxCell>
                <mxCell id="162" style="edgeStyle=none;html=1;entryX=0.25;entryY=0;entryDx=0;entryDy=0;fontColor=#000033;strokeColor=#00FFFF;strokeWidth=2;" parent="1" source="48" target="44" edge="1">
                    <mxGeometry relative="1" as="geometry">
                        <Array as="points">
                            <mxPoint x="1570" y="-608"/>
                            <mxPoint x="1570" y="-729"/>
                            <mxPoint x="1802" y="-729"/>
                        </Array>
                    </mxGeometry>
                </mxCell>
                <mxCell id="48" value="Confirmação de cadastro" style="rounded=1;whiteSpace=wrap;html=1;fillColor=#FF99CC;strokeColor=#A50040;fontColor=#99004D;fontStyle=0" parent="1" vertex="1">
                    <mxGeometry x="1330" y="-623" width="160" height="30" as="geometry"/>
                </mxCell>
                <mxCell id="42" value="Cadastre-se" style="rounded=0;whiteSpace=wrap;html=1;fillColor=#d80073;strokeColor=#A50040;fontColor=#ffffff;fontStyle=1" parent="1" vertex="1">
                    <mxGeometry x="1190" y="-673" width="324.5" height="30" as="geometry"/>
                </mxCell>
                <mxCell id="154" value="Módulo Home" style="rounded=1;whiteSpace=wrap;html=1;fillColor=#008a00;strokeColor=#005700;fontColor=#ffffff;fontStyle=1" parent="1" vertex="1">
                    <mxGeometry x="-1706" y="-2270" width="192" height="60" as="geometry"/>
                </mxCell>
                <mxCell id="152" value="" style="rounded=0;whiteSpace=wrap;html=1;fontColor=#000033;strokeColor=#FFFFFF;fillColor=none;" parent="1" vertex="1">
                    <mxGeometry x="1650" y="-673" width="610" height="263" as="geometry"/>
                </mxCell>
                <mxCell id="251" style="edgeStyle=none;html=1;entryX=0.5;entryY=0;entryDx=0;entryDy=0;fontSize=24;fontColor=#000033;strokeColor=#00FFFF;strokeWidth=2;exitX=0.75;exitY=0;exitDx=0;exitDy=0;" parent="1" source="44" target="247" edge="1">
                    <mxGeometry relative="1" as="geometry">
                        <Array as="points">
                            <mxPoint x="2110" y="-1080"/>
                            <mxPoint x="2540" y="-1080"/>
                        </Array>
                    </mxGeometry>
                </mxCell>
                <mxCell id="44" value="Entrar" style="rounded=0;whiteSpace=wrap;html=1;fillColor=#d80073;strokeColor=#A50040;fontColor=#ffffff;fontStyle=1" parent="1" vertex="1">
                    <mxGeometry x="1650" y="-673" width="610" height="30" as="geometry"/>
                </mxCell>
                <mxCell id="163" style="edgeStyle=none;html=1;entryX=0.25;entryY=1;entryDx=0;entryDy=0;fontColor=#000033;strokeColor=#00FFFF;strokeWidth=2;exitX=0.5;exitY=1;exitDx=0;exitDy=0;" parent="1" source="51" target="53" edge="1">
                    <mxGeometry relative="1" as="geometry">
                        <Array as="points">
                            <mxPoint x="1741" y="-519"/>
                            <mxPoint x="1849" y="-519"/>
                        </Array>
                    </mxGeometry>
                </mxCell>
                <mxCell id="51" value="Esqueceu senha?" style="rounded=1;whiteSpace=wrap;html=1;fillColor=#FF99CC;strokeColor=#A50040;fontColor=#99004D;fontStyle=0" parent="1" vertex="1">
                    <mxGeometry x="1675" y="-623" width="131" height="30" as="geometry"/>
                </mxCell>
                <mxCell id="164" style="edgeStyle=none;html=1;entryX=0.75;entryY=1;entryDx=0;entryDy=0;fontColor=#000033;strokeColor=#00FFFF;strokeWidth=2;exitX=0.75;exitY=1;exitDx=0;exitDy=0;" parent="1" source="53" target="55" edge="1">
                    <mxGeometry relative="1" as="geometry">
                        <Array as="points">
                            <mxPoint x="1914" y="-489"/>
                            <mxPoint x="2201" y="-489"/>
                        </Array>
                    </mxGeometry>
                </mxCell>
                <mxCell id="53" value="Redefinir senha&lt;br&gt;(usuário não logado)" style="rounded=1;whiteSpace=wrap;html=1;fillColor=#FF99CC;strokeColor=#A50040;fontColor=#99004D;fontStyle=0" parent="1" vertex="1">
                    <mxGeometry x="1816" y="-623" width="131" height="50" as="geometry"/>
                </mxCell>
                <mxCell id="55" value="Senha Alterada" style="rounded=1;whiteSpace=wrap;html=1;fillColor=#FF99CC;strokeColor=#A50040;fontColor=#99004D;fontStyle=0" parent="1" vertex="1">
                    <mxGeometry x="2100" y="-623" width="135" height="30" as="geometry"/>
                </mxCell>
                <mxCell id="165" style="edgeStyle=none;html=1;entryX=0.25;entryY=1;entryDx=0;entryDy=0;fontColor=#000033;strokeColor=#00FFFF;strokeWidth=2;exitX=0.5;exitY=1;exitDx=0;exitDy=0;" parent="1" source="72" target="55" edge="1">
                    <mxGeometry relative="1" as="geometry">
                        <Array as="points">
                            <mxPoint x="2024" y="-519"/>
                            <mxPoint x="2134" y="-519"/>
                        </Array>
                    </mxGeometry>
                </mxCell>
                <mxCell id="72" value="Alterar senha&lt;br&gt;(usuário logado)" style="rounded=1;whiteSpace=wrap;html=1;fillColor=#FF99CC;strokeColor=#A50040;fontColor=#99004D;fontStyle=0" parent="1" vertex="1">
                    <mxGeometry x="1958" y="-623" width="131" height="50" as="geometry"/>
                </mxCell>
                <mxCell id="148" value="" style="rounded=0;whiteSpace=wrap;html=1;fontColor=#000033;strokeColor=#FFFFFF;fillColor=none;" parent="1" vertex="1">
                    <mxGeometry x="-2210" y="-430" width="1590" height="150" as="geometry"/>
                </mxCell>
                <mxCell id="77" value="Home" style="rounded=0;whiteSpace=wrap;html=1;fillColor=#008a00;strokeColor=#005700;fontColor=#ffffff;fontStyle=1" parent="1" vertex="1">
                    <mxGeometry x="-2210" y="-430" width="1590" height="40" as="geometry"/>
                </mxCell>
                <mxCell id="145" value="" style="group" parent="1" vertex="1" connectable="0">
                    <mxGeometry x="-2180" y="-370" width="1528" height="60" as="geometry"/>
                </mxCell>
                <mxCell id="80" value="Cadastro da dívida" style="rounded=1;whiteSpace=wrap;html=1;fillColor=#99FF99;strokeColor=#003300;fontColor=#000033;fontStyle=1" parent="145" vertex="1">
                    <mxGeometry width="152" height="40" as="geometry"/>
                </mxCell>
                <mxCell id="82" value="Consulta de protesto" style="rounded=1;whiteSpace=wrap;html=1;fillColor=#e51400;strokeColor=#B20000;fontColor=#ffffff;fontStyle=1" parent="145" vertex="1">
                    <mxGeometry x="172" width="152" height="40" as="geometry"/>
                </mxCell>
                <mxCell id="83" value="Cancelamento de protesto" style="rounded=1;whiteSpace=wrap;html=1;fillColor=#99FF99;strokeColor=#003300;fontColor=#000033;fontStyle=1" parent="145" vertex="1">
                    <mxGeometry x="344" width="152" height="60" as="geometry"/>
                </mxCell>
                <mxCell id="84" value="Serviços para o credor" style="rounded=1;whiteSpace=wrap;html=1;fillColor=#99FF99;strokeColor=#003300;fontColor=#000033;fontStyle=1" parent="145" vertex="1">
                    <mxGeometry x="516" width="152" height="40" as="geometry"/>
                </mxCell>
                <mxCell id="85" value="Serviços para o devedor" style="rounded=1;whiteSpace=wrap;html=1;fillColor=#99FF99;strokeColor=#003300;fontColor=#000033;fontStyle=1" parent="145" vertex="1">
                    <mxGeometry x="688" width="152" height="40" as="geometry"/>
                </mxCell>
                <mxCell id="86" value="Validação de código" style="rounded=1;whiteSpace=wrap;html=1;fillColor=#99FF99;strokeColor=#003300;fontColor=#000033;fontStyle=1" parent="145" vertex="1">
                    <mxGeometry x="860" width="152" height="40" as="geometry"/>
                </mxCell>
                <mxCell id="87" value="Quem somos" style="rounded=1;whiteSpace=wrap;html=1;fillColor=#99FF99;strokeColor=#003300;fontColor=#000033;fontStyle=1" parent="145" vertex="1">
                    <mxGeometry x="1032" width="152" height="40" as="geometry"/>
                </mxCell>
                <mxCell id="88" value="O que é um protesto?" style="rounded=1;whiteSpace=wrap;html=1;fillColor=#99FF99;strokeColor=#003300;fontColor=#000033;fontStyle=1" parent="145" vertex="1">
                    <mxGeometry x="1204" width="152" height="40" as="geometry"/>
                </mxCell>
                <mxCell id="89" value="Saiba como solicitar" style="rounded=1;whiteSpace=wrap;html=1;fillColor=#99FF99;strokeColor=#003300;fontColor=#000033;fontStyle=1" parent="145" vertex="1">
                    <mxGeometry x="1376" width="152" height="40" as="geometry"/>
                </mxCell>
                <mxCell id="146" value="" style="rounded=0;whiteSpace=wrap;html=1;fontColor=#000033;strokeColor=#FFFFFF;fillColor=none;" parent="1" vertex="1">
                    <mxGeometry x="-447" y="-290" width="1540" height="450" as="geometry"/>
                </mxCell>
                <mxCell id="107" value="Atendimento" style="rounded=1;whiteSpace=wrap;html=1;fillColor=#0050ef;strokeColor=#001DBC;fontColor=#ffffff;fontStyle=1" parent="1" vertex="1">
                    <mxGeometry x="-77" y="-230" width="128" height="40" as="geometry"/>
                </mxCell>
                <mxCell id="113" value="Cadastro da dívida" style="rounded=1;whiteSpace=wrap;html=1;fillColor=#0050ef;strokeColor=#001DBC;fontColor=#ffffff;fontStyle=1" parent="1" vertex="1">
                    <mxGeometry x="73" y="-230" width="152" height="40" as="geometry"/>
                </mxCell>
                <mxCell id="119" value="Cancelamento da dívida" style="rounded=1;whiteSpace=wrap;html=1;fillColor=#0050ef;strokeColor=#001DBC;fontColor=#ffffff;fontStyle=1" parent="1" vertex="1">
                    <mxGeometry x="246" y="-230" width="188" height="40" as="geometry"/>
                </mxCell>
                <mxCell id="120" value="Como solicitar" style="rounded=1;whiteSpace=wrap;html=1;fillColor=#0050ef;strokeColor=#001DBC;fontColor=#ffffff;fontStyle=1" parent="1" vertex="1">
                    <mxGeometry x="629" y="-230" width="132" height="40" as="geometry"/>
                </mxCell>
                <mxCell id="121" value="O que é um protesto?" style="rounded=1;whiteSpace=wrap;html=1;fillColor=#0050ef;strokeColor=#001DBC;fontColor=#ffffff;fontStyle=1" parent="1" vertex="1">
                    <mxGeometry x="454" y="-230" width="148" height="40" as="geometry"/>
                </mxCell>
                <mxCell id="122" value="Política de privacidade" style="rounded=1;whiteSpace=wrap;html=1;fillColor=#0050ef;strokeColor=#001DBC;fontColor=#ffffff;fontStyle=1" parent="1" vertex="1">
                    <mxGeometry x="780" y="-230" width="148" height="40" as="geometry"/>
                </mxCell>
                <mxCell id="123" value="Termos de uso" style="rounded=1;whiteSpace=wrap;html=1;fillColor=#0050ef;strokeColor=#001DBC;fontColor=#ffffff;fontStyle=1" parent="1" vertex="1">
                    <mxGeometry x="950" y="-230" width="108" height="40" as="geometry"/>
                </mxCell>
                <mxCell id="126" value="Páginas do módulo institucional" style="rounded=0;whiteSpace=wrap;html=1;fillColor=#0050ef;fontStyle=1;fontColor=#ffffff;strokeColor=#001DBC;" parent="1" vertex="1">
                    <mxGeometry x="-447" y="-290" width="1540" height="40" as="geometry"/>
                </mxCell>
                <mxCell id="142" value="" style="group" parent="1" vertex="1" connectable="0">
                    <mxGeometry x="-417" y="-230" width="152" height="360" as="geometry"/>
                </mxCell>
                <mxCell id="91" value="Quem somos" style="rounded=1;whiteSpace=wrap;html=1;fillColor=#0050ef;strokeColor=#001DBC;fontColor=#ffffff;fontStyle=1" parent="142" vertex="1">
                    <mxGeometry width="152" height="40" as="geometry"/>
                </mxCell>
                <mxCell id="92" value="Cadastro da dívida" style="rounded=1;whiteSpace=wrap;html=1;fillColor=#66B2FF;strokeColor=#001DBC;fontColor=#000033;fontStyle=1" parent="142" vertex="1">
                    <mxGeometry y="60" width="152" height="40" as="geometry"/>
                </mxCell>
                <mxCell id="93" value="Consulta de protesto" style="rounded=1;whiteSpace=wrap;html=1;fillColor=#e51400;strokeColor=#B20000;fontColor=#ffffff;fontStyle=1" parent="142" vertex="1">
                    <mxGeometry y="120" width="152" height="40" as="geometry"/>
                </mxCell>
                <mxCell id="94" value="Cancelamento de protesto" style="rounded=1;whiteSpace=wrap;html=1;fillColor=#66B2FF;strokeColor=#001DBC;fontColor=#000033;fontStyle=1" parent="142" vertex="1">
                    <mxGeometry y="180" width="152" height="60" as="geometry"/>
                </mxCell>
                <mxCell id="95" value="Serviços para o credor" style="rounded=1;whiteSpace=wrap;html=1;fillColor=#66B2FF;strokeColor=#001DBC;fontColor=#000033;fontStyle=1" parent="142" vertex="1">
                    <mxGeometry y="260" width="152" height="40" as="geometry"/>
                </mxCell>
                <mxCell id="96" value="Serviços para o devedor" style="rounded=1;whiteSpace=wrap;html=1;fillColor=#66B2FF;strokeColor=#001DBC;fontColor=#000033;fontStyle=1" parent="142" vertex="1">
                    <mxGeometry y="320" width="152" height="40" as="geometry"/>
                </mxCell>
                <mxCell id="143" value="" style="group" parent="1" vertex="1" connectable="0">
                    <mxGeometry x="-247" y="-230" width="152" height="100" as="geometry"/>
                </mxCell>
                <mxCell id="101" value="Serviços" style="rounded=1;whiteSpace=wrap;html=1;fillColor=#0050ef;strokeColor=#001DBC;fontColor=#ffffff;fontStyle=1" parent="143" vertex="1">
                    <mxGeometry width="152" height="40" as="geometry"/>
                </mxCell>
                <mxCell id="102" value="Cadastre-se agora" style="rounded=1;whiteSpace=wrap;html=1;fillColor=#66B2FF;strokeColor=#001DBC;fontColor=#000033;fontStyle=1" parent="143" vertex="1">
                    <mxGeometry y="60" width="152" height="40" as="geometry"/>
                </mxCell>
                <mxCell id="167" style="edgeStyle=none;html=1;entryX=0.5;entryY=0;entryDx=0;entryDy=0;fontColor=#000033;strokeColor=#00FFFF;strokeWidth=2;" parent="1" source="10" target="120" edge="1">
                    <mxGeometry relative="1" as="geometry"/>
                </mxCell>
                <mxCell id="168" style="edgeStyle=none;html=1;fontColor=#000033;strokeColor=#00FFFF;strokeWidth=2;" parent="1" source="9" target="121" edge="1">
                    <mxGeometry relative="1" as="geometry">
                        <Array as="points">
                            <mxPoint x="555" y="-560"/>
                            <mxPoint x="528" y="-560"/>
                        </Array>
                    </mxGeometry>
                </mxCell>
                <mxCell id="169" style="edgeStyle=none;html=1;entryX=0.25;entryY=0;entryDx=0;entryDy=0;fontColor=#000033;strokeColor=#00FFFF;strokeWidth=2;" parent="1" source="27" target="101" edge="1">
                    <mxGeometry relative="1" as="geometry">
                        <Array as="points">
                            <mxPoint x="-180" y="-560"/>
                            <mxPoint x="-209" y="-560"/>
                        </Array>
                    </mxGeometry>
                </mxCell>
                <mxCell id="170" style="edgeStyle=none;html=1;entryX=0.75;entryY=0;entryDx=0;entryDy=0;fontColor=#000033;strokeColor=#00FFFF;strokeWidth=2;" parent="1" source="28" target="101" edge="1">
                    <mxGeometry relative="1" as="geometry">
                        <Array as="points">
                            <mxPoint x="-58" y="-560"/>
                            <mxPoint x="-133" y="-560"/>
                        </Array>
                    </mxGeometry>
                </mxCell>
                <mxCell id="171" style="edgeStyle=none;html=1;entryX=0.5;entryY=0;entryDx=0;entryDy=0;fontColor=#000033;strokeColor=#00FFFF;strokeWidth=2;" parent="1" source="34" target="107" edge="1">
                    <mxGeometry relative="1" as="geometry">
                        <Array as="points">
                            <mxPoint x="128" y="-560"/>
                            <mxPoint x="-13" y="-560"/>
                        </Array>
                    </mxGeometry>
                </mxCell>
                <mxCell id="172" style="edgeStyle=none;html=1;entryX=0.5;entryY=0;entryDx=0;entryDy=0;fontColor=#000033;strokeColor=#00FFFF;strokeWidth=2;" parent="1" source="26" target="91" edge="1">
                    <mxGeometry relative="1" as="geometry">
                        <Array as="points">
                            <mxPoint x="-292" y="-560"/>
                            <mxPoint x="-340" y="-560"/>
                        </Array>
                    </mxGeometry>
                </mxCell>
                <mxCell id="173" style="edgeStyle=none;html=1;entryX=0.5;entryY=0;entryDx=0;entryDy=0;fontColor=#000033;strokeColor=#00FFFF;strokeWidth=2;" parent="1" source="25" target="148" edge="1">
                    <mxGeometry relative="1" as="geometry">
                        <Array as="points">
                            <mxPoint x="-407" y="-560"/>
                            <mxPoint x="-1415" y="-560"/>
                        </Array>
                    </mxGeometry>
                </mxCell>
                <mxCell id="174" value="Idioma" style="rounded=1;whiteSpace=wrap;html=1;fontStyle=1" parent="1" vertex="1">
                    <mxGeometry x="-1940" y="-2350" width="192" height="60" as="geometry"/>
                </mxCell>
                <mxCell id="175" value="Tradução &amp;amp; Acessibilidade" style="rounded=1;whiteSpace=wrap;html=1;fontStyle=1;fillColor=#6a00ff;fontColor=#ffffff;strokeColor=#3700CC;" parent="1" vertex="1">
                    <mxGeometry x="-1940" y="-2430" width="192" height="60" as="geometry"/>
                </mxCell>
                <mxCell id="177" value="ÍNDICE DE CORES" style="rounded=0;whiteSpace=wrap;html=1;fontColor=#000033;strokeColor=none;fillColor=#FFFFFF;fontStyle=1;fontSize=24;" parent="1" vertex="1">
                    <mxGeometry x="-1980" y="-2540" width="740" height="80" as="geometry"/>
                </mxCell>
                <mxCell id="178" value="Credor" style="rounded=1;whiteSpace=wrap;html=1;fillColor=#e3c800;strokeColor=#B09500;fontColor=#000000;fontStyle=1" parent="1" vertex="1">
                    <mxGeometry x="-1470" y="-2430" width="192" height="60" as="geometry"/>
                </mxCell>
                <mxCell id="179" value="Devedor" style="rounded=1;whiteSpace=wrap;html=1;fillColor=#e51400;strokeColor=#B20000;fontColor=#ffffff;fontStyle=1" parent="1" vertex="1">
                    <mxGeometry x="-1470" y="-2350" width="192" height="60" as="geometry"/>
                </mxCell>
                <mxCell id="180" style="edgeStyle=none;html=1;entryX=0.5;entryY=1;entryDx=0;entryDy=0;fontSize=24;fontColor=#000033;strokeColor=#00FFFF;strokeWidth=2;" parent="1" source="80" target="113" edge="1">
                    <mxGeometry relative="1" as="geometry">
                        <Array as="points">
                            <mxPoint x="-2104" y="320"/>
                            <mxPoint x="149" y="320"/>
                        </Array>
                    </mxGeometry>
                </mxCell>
                <mxCell id="181" style="edgeStyle=none;html=1;entryX=0.5;entryY=0;entryDx=0;entryDy=0;fontSize=24;fontColor=#000033;strokeColor=#00FFFF;strokeWidth=2;" parent="1" source="46" target="123" edge="1">
                    <mxGeometry relative="1" as="geometry">
                        <Array as="points">
                            <mxPoint x="1266" y="-410"/>
                            <mxPoint x="1004" y="-410"/>
                        </Array>
                    </mxGeometry>
                </mxCell>
                <mxCell id="182" value="Módulo Carta de anuência" style="rounded=1;whiteSpace=wrap;html=1;fillColor=#a0522d;strokeColor=#6D1F00;fontColor=#ffffff;fontStyle=1" parent="1" vertex="1">
                    <mxGeometry x="-1706" y="-2430" width="192" height="60" as="geometry"/>
                </mxCell>
                <mxCell id="183" style="edgeStyle=none;html=1;entryX=0.5;entryY=1;entryDx=0;entryDy=0;fontSize=24;fontColor=#000033;strokeColor=#00FFFF;strokeWidth=2;" parent="1" source="83" target="119" edge="1">
                    <mxGeometry relative="1" as="geometry">
                        <Array as="points">
                            <mxPoint x="-1760" y="240"/>
                            <mxPoint x="340" y="240"/>
                        </Array>
                    </mxGeometry>
                </mxCell>
                <mxCell id="184" style="edgeStyle=none;html=1;entryX=0.5;entryY=1;entryDx=0;entryDy=0;fontSize=24;fontColor=#000033;strokeColor=#33FF33;strokeWidth=2;" parent="1" source="102" target="151" edge="1">
                    <mxGeometry relative="1" as="geometry">
                        <Array as="points">
                            <mxPoint x="1352" y="-150"/>
                        </Array>
                    </mxGeometry>
                </mxCell>
                <mxCell id="185" style="edgeStyle=none;html=1;entryX=0.25;entryY=1;entryDx=0;entryDy=0;fontSize=24;fontColor=#000033;strokeColor=#FFFF66;strokeWidth=2;exitX=1;exitY=0.5;exitDx=0;exitDy=0;" parent="1" source="94" target="119" edge="1">
                    <mxGeometry relative="1" as="geometry">
                        <Array as="points">
                            <mxPoint x="293" y="-20"/>
                        </Array>
                    </mxGeometry>
                </mxCell>
                <mxCell id="186" style="edgeStyle=none;html=1;entryX=0;entryY=0;entryDx=0;entryDy=0;fontSize=24;fontColor=#000033;strokeColor=#33FF33;strokeWidth=2;exitX=0;exitY=0.5;exitDx=0;exitDy=0;" parent="1" source="95" target="101" edge="1">
                    <mxGeometry relative="1" as="geometry">
                        <Array as="points">
                            <mxPoint x="-500" y="50"/>
                            <mxPoint x="-500" y="-320"/>
                            <mxPoint x="-247" y="-320"/>
                        </Array>
                    </mxGeometry>
                </mxCell>
                <mxCell id="187" style="edgeStyle=none;html=1;entryX=1;entryY=0;entryDx=0;entryDy=0;fontSize=24;fontColor=#000033;strokeColor=#FFFF66;strokeWidth=2;exitX=0;exitY=0.5;exitDx=0;exitDy=0;" parent="1" source="96" target="101" edge="1">
                    <mxGeometry relative="1" as="geometry">
                        <Array as="points">
                            <mxPoint x="-560" y="110"/>
                            <mxPoint x="-560" y="-360"/>
                            <mxPoint x="-95" y="-360"/>
                        </Array>
                    </mxGeometry>
                </mxCell>
                <mxCell id="189" style="edgeStyle=none;html=1;fontSize=24;fontColor=#000033;strokeColor=#FFFF66;strokeWidth=2;" parent="1" source="85" edge="1">
                    <mxGeometry relative="1" as="geometry">
                        <mxPoint x="-560" y="20" as="targetPoint"/>
                        <Array as="points">
                            <mxPoint x="-1416" y="20"/>
                        </Array>
                    </mxGeometry>
                </mxCell>
                <mxCell id="190" style="edgeStyle=none;html=1;fontSize=24;fontColor=#000033;strokeColor=#33FF33;strokeWidth=2;" parent="1" source="84" edge="1">
                    <mxGeometry relative="1" as="geometry">
                        <mxPoint x="-500" y="-100" as="targetPoint"/>
                        <Array as="points">
                            <mxPoint x="-1588" y="-100"/>
                        </Array>
                    </mxGeometry>
                </mxCell>
                <mxCell id="191" style="edgeStyle=none;html=1;entryX=0.25;entryY=0;entryDx=0;entryDy=0;fontSize=24;fontColor=#000033;strokeColor=#00FFFF;strokeWidth=2;" parent="1" source="87" target="91" edge="1">
                    <mxGeometry relative="1" as="geometry">
                        <Array as="points">
                            <mxPoint x="-1072" y="-470"/>
                            <mxPoint x="-380" y="-470"/>
                        </Array>
                    </mxGeometry>
                </mxCell>
                <mxCell id="192" style="edgeStyle=none;html=1;entryX=0.25;entryY=0;entryDx=0;entryDy=0;fontSize=24;fontColor=#000033;strokeColor=#33FF33;strokeWidth=2;" parent="1" source="88" target="121" edge="1">
                    <mxGeometry relative="1" as="geometry">
                        <Array as="points">
                            <mxPoint x="-900" y="-530"/>
                            <mxPoint x="491" y="-530"/>
                        </Array>
                    </mxGeometry>
                </mxCell>
                <mxCell id="193" style="edgeStyle=none;html=1;entryX=0.25;entryY=0;entryDx=0;entryDy=0;fontSize=24;fontColor=#000033;strokeColor=#FFFF66;strokeWidth=2;" parent="1" source="89" target="120" edge="1">
                    <mxGeometry relative="1" as="geometry">
                        <Array as="points">
                            <mxPoint x="-728" y="-500"/>
                            <mxPoint x="662" y="-500"/>
                        </Array>
                    </mxGeometry>
                </mxCell>
                <mxCell id="209" value="" style="rounded=0;whiteSpace=wrap;html=1;fontColor=#000033;strokeColor=#FFFFFF;fillColor=none;" parent="1" vertex="1">
                    <mxGeometry x="-1280" y="520" width="390" height="250" as="geometry"/>
                </mxCell>
                <mxCell id="220" value="Consulta de protesto" style="rounded=0;whiteSpace=wrap;html=1;fillColor=#e51400;strokeColor=#B20000;fontColor=#ffffff;fontStyle=1" parent="1" vertex="1">
                    <mxGeometry x="-1280" y="520" width="390" height="40" as="geometry"/>
                </mxCell>
                <mxCell id="227" style="edgeStyle=none;html=1;fontSize=24;fontColor=#000033;strokeColor=#00FFFF;strokeWidth=2;exitX=0.5;exitY=1;exitDx=0;exitDy=0;entryX=0.5;entryY=1;entryDx=0;entryDy=0;" parent="1" source="211" target="221" edge="1">
                    <mxGeometry relative="1" as="geometry">
                        <Array as="points">
                            <mxPoint x="-1174" y="660"/>
                            <mxPoint x="-994" y="660"/>
                        </Array>
                    </mxGeometry>
                </mxCell>
                <mxCell id="211" value="Consultar" style="rounded=1;whiteSpace=wrap;html=1;fillColor=#FF9999;strokeColor=#660000;fontColor=#000033;fontStyle=1" parent="1" vertex="1">
                    <mxGeometry x="-1250" y="580" width="152" height="40" as="geometry"/>
                </mxCell>
                <mxCell id="228" style="edgeStyle=none;html=1;entryX=0;entryY=0.5;entryDx=0;entryDy=0;fontSize=24;fontColor=#000033;strokeColor=#00FFFF;strokeWidth=2;" parent="1" source="221" target="222" edge="1">
                    <mxGeometry relative="1" as="geometry">
                        <Array as="points">
                            <mxPoint x="-840" y="600"/>
                            <mxPoint x="-840" y="690"/>
                            <mxPoint x="-680" y="690"/>
                            <mxPoint x="-680" y="615"/>
                        </Array>
                    </mxGeometry>
                </mxCell>
                <mxCell id="221" value="Pagar dívida" style="rounded=1;whiteSpace=wrap;html=1;fillColor=#FF9999;strokeColor=#660000;fontColor=#000033;fontStyle=1" parent="1" vertex="1">
                    <mxGeometry x="-1070" y="580" width="152" height="40" as="geometry"/>
                </mxCell>
                <mxCell id="222" value="" style="rounded=0;whiteSpace=wrap;html=1;fontColor=#000033;strokeColor=#FFFFFF;fillColor=none;" parent="1" vertex="1">
                    <mxGeometry x="-630" y="520" width="560" height="190" as="geometry"/>
                </mxCell>
                <mxCell id="223" value="Pagamento" style="rounded=0;whiteSpace=wrap;html=1;fillColor=#e51400;strokeColor=#B20000;fontColor=#ffffff;fontStyle=1" parent="1" vertex="1">
                    <mxGeometry x="-630" y="520" width="560" height="40" as="geometry"/>
                </mxCell>
                <mxCell id="224" value="Crédito" style="rounded=1;whiteSpace=wrap;html=1;fillColor=#FF9999;strokeColor=#660000;fontColor=#000033;fontStyle=1" parent="1" vertex="1">
                    <mxGeometry x="-600" y="580" width="152" height="40" as="geometry"/>
                </mxCell>
                <mxCell id="225" value="Boleto" style="rounded=1;whiteSpace=wrap;html=1;fillColor=#FF9999;strokeColor=#660000;fontColor=#000033;fontStyle=1" parent="1" vertex="1">
                    <mxGeometry x="-427" y="580" width="152" height="40" as="geometry"/>
                </mxCell>
                <mxCell id="226" value="Pix" style="rounded=1;whiteSpace=wrap;html=1;fillColor=#FF9999;strokeColor=#660000;fontColor=#000033;fontStyle=1" parent="1" vertex="1">
                    <mxGeometry x="-255" y="580" width="152" height="40" as="geometry"/>
                </mxCell>
                <mxCell id="232" style="edgeStyle=none;html=1;entryX=0.25;entryY=0;entryDx=0;entryDy=0;fontSize=24;fontColor=#000033;strokeColor=#33FF33;strokeWidth=2;" parent="1" source="82" target="220" edge="1">
                    <mxGeometry relative="1" as="geometry">
                        <Array as="points">
                            <mxPoint x="-1932" y="400"/>
                            <mxPoint x="-1182" y="400"/>
                        </Array>
                    </mxGeometry>
                </mxCell>
                <mxCell id="233" style="edgeStyle=none;html=1;entryX=0.75;entryY=0;entryDx=0;entryDy=0;fontSize=24;fontColor=#000033;strokeColor=#33FF33;strokeWidth=2;" parent="1" source="93" target="209" edge="1">
                    <mxGeometry relative="1" as="geometry">
                        <Array as="points">
                            <mxPoint x="-190" y="-90"/>
                            <mxPoint x="-190" y="400"/>
                            <mxPoint x="-987" y="400"/>
                        </Array>
                    </mxGeometry>
                </mxCell>
                <mxCell id="235" value="" style="rounded=0;whiteSpace=wrap;html=1;fontColor=#000033;strokeColor=#FFFFFF;fillColor=none;" parent="1" vertex="1">
                    <mxGeometry x="-220" y="-1260" width="360" height="170" as="geometry"/>
                </mxCell>
                <mxCell id="236" value="Validador" style="rounded=0;whiteSpace=wrap;html=1;fillColor=#a0522d;fontStyle=1;fontColor=#ffffff;strokeColor=#6D1F00;" parent="1" vertex="1">
                    <mxGeometry x="-220" y="-1260" width="360" height="40" as="geometry"/>
                </mxCell>
                <mxCell id="237" value="Verificação de código" style="rounded=1;whiteSpace=wrap;html=1;fillColor=#FFCC99;fontStyle=0;strokeColor=#10739e;fontColor=#000000;" parent="1" vertex="1">
                    <mxGeometry x="-190" y="-1200" width="140" height="30" as="geometry"/>
                </mxCell>
                <mxCell id="243" value="PDF Viewer" style="rounded=1;whiteSpace=wrap;html=1;fillColor=#FFCC99;fontStyle=0;strokeColor=#10739e;fontColor=#000000;" parent="1" vertex="1">
                    <mxGeometry x="-29" y="-1200" width="140" height="30" as="geometry"/>
                </mxCell>
                <mxCell id="244" style="edgeStyle=none;html=1;fontSize=24;fontColor=#000033;strokeColor=#00FFFF;strokeWidth=2;entryX=0.5;entryY=0.785;entryDx=0;entryDy=0;entryPerimeter=0;" parent="1" source="33" target="271" edge="1">
                    <mxGeometry relative="1" as="geometry">
                        <mxPoint x="-40" y="-1030" as="targetPoint"/>
                        <Array as="points">
                            <mxPoint x="40" y="-940"/>
                            <mxPoint x="-40" y="-940"/>
                        </Array>
                    </mxGeometry>
                </mxCell>
                <mxCell id="245" value="Módulo Auth" style="rounded=1;whiteSpace=wrap;html=1;fillColor=#647687;strokeColor=#314354;fontColor=#ffffff;fontStyle=1" parent="1" vertex="1">
                    <mxGeometry x="-1706" y="-2350" width="192" height="60" as="geometry"/>
                </mxCell>
                <mxCell id="246" value="" style="rounded=0;whiteSpace=wrap;html=1;fontColor=#000033;strokeColor=#FFFFFF;fillColor=none;" parent="1" vertex="1">
                    <mxGeometry x="2360" y="-1040" width="360" height="114" as="geometry"/>
                </mxCell>
                <mxCell id="247" value="Terminar cadastro" style="rounded=0;whiteSpace=wrap;html=1;fillColor=#647687;fontStyle=1;fontColor=#ffffff;strokeColor=#314354;" parent="1" vertex="1">
                    <mxGeometry x="2360" y="-1040" width="360" height="40" as="geometry"/>
                </mxCell>
                <mxCell id="262" style="edgeStyle=none;html=1;entryX=0;entryY=0.5;entryDx=0;entryDy=0;fontSize=24;fontColor=#000000;strokeColor=#FFFF99;strokeWidth=2;" parent="1" source="248" target="257" edge="1">
                    <mxGeometry relative="1" as="geometry">
                        <Array as="points">
                            <mxPoint x="2460" y="-755"/>
                        </Array>
                    </mxGeometry>
                </mxCell>
                <mxCell id="248" value="Perfil de credor" style="rounded=1;whiteSpace=wrap;html=1;fillColor=#CCCCCC;fontStyle=0;strokeColor=#314354;fontColor=#000000;" parent="1" vertex="1">
                    <mxGeometry x="2390" y="-980" width="140" height="30" as="geometry"/>
                </mxCell>
                <mxCell id="299" style="edgeStyle=none;html=1;entryX=0.5;entryY=1;entryDx=0;entryDy=0;fontSize=12;fontColor=#000000;strokeColor=#FFFF99;strokeWidth=2;" parent="1" source="250" target="288" edge="1">
                    <mxGeometry relative="1" as="geometry">
                        <Array as="points">
                            <mxPoint x="2980" y="-965"/>
                        </Array>
                    </mxGeometry>
                </mxCell>
                <mxCell id="250" value="Perfil de devedor" style="rounded=1;whiteSpace=wrap;html=1;fillColor=#CCCCCC;fontStyle=0;strokeColor=#314354;fontColor=#000000;" parent="1" vertex="1">
                    <mxGeometry x="2551" y="-980" width="140" height="30" as="geometry"/>
                </mxCell>
                <mxCell id="256" value="Perfil de credor" style="rounded=0;whiteSpace=wrap;html=1;fillColor=#647687;strokeColor=#314354;fontColor=#ffffff;fontStyle=1" parent="1" vertex="1">
                    <mxGeometry x="2640" y="-840" width="680" height="40" as="geometry"/>
                </mxCell>
                <mxCell id="263" value="Ao finalizar o cadastro, o backoficce fará a análise dos documentos enviados e liberar o credor para que possa cadastrar a dívida. Se o credor ainda não cadastrou sua primeira dívida, a primeira visualização dele será a página de cadastro da dívida, após isso, o próximo acesso segue como padrão normal." style="rounded=0;whiteSpace=wrap;html=1;fontSize=12;strokeColor=#36393d;fillColor=#cdeb8b;perimeterSpacing=20;spacingTop=0;spacing=16;fontColor=#000000;" parent="1" vertex="1">
                    <mxGeometry x="2640" y="-723" width="680" height="53" as="geometry"/>
                </mxCell>
                <mxCell id="269" value="A opção de &lt;b&gt;Redefinir senha&lt;/b&gt; aparece para o usuário não logado, recebendo uma notificação via e-mail com um link para redefinir seus dados de acesso. A opção &lt;b&gt;Alterar senha&lt;/b&gt; será exibida no painel do usuário logado" style="rounded=0;whiteSpace=wrap;html=1;fontSize=12;strokeColor=#36393d;fillColor=#cdeb8b;perimeterSpacing=20;spacingTop=0;spacing=10;fontColor=#000000;" parent="1" vertex="1">
                    <mxGeometry x="1650" y="-463" width="610" height="53" as="geometry"/>
                </mxCell>
                <mxCell id="271" value="Um código será gerado e enviado via e-mail para o devedor que decidiu realizar o pagamento da dívida" style="rounded=0;whiteSpace=wrap;html=1;fontSize=12;strokeColor=#36393d;fillColor=#cdeb8b;perimeterSpacing=20;spacingTop=0;spacing=10;fontColor=#000000;" parent="1" vertex="1">
                    <mxGeometry x="-220" y="-1143" width="360" height="53" as="geometry"/>
                </mxCell>
                <mxCell id="272" value="Para usuários não logados, ao inserir o CPF ou CNPJ, será exibido uma mensagem informando se existe ou não dívidas no documento diitado. Para o usuário logado, exibirá uma grid com todas as dívidas cadastradas no documento digitado." style="rounded=0;whiteSpace=wrap;html=1;fontSize=12;strokeColor=#36393d;fillColor=#cdeb8b;perimeterSpacing=20;spacingTop=0;spacing=10;fontColor=#000000;" parent="1" vertex="1">
                    <mxGeometry x="-1280" y="690" width="390" height="80" as="geometry"/>
                </mxCell>
                <mxCell id="273" value="Ao finalizar o pagamento, o usuário receberá um código via e-mail para validação da carta de anuencia." style="rounded=0;whiteSpace=wrap;html=1;fontSize=12;strokeColor=#36393d;fillColor=#cdeb8b;perimeterSpacing=20;spacingTop=0;spacing=10;fontColor=#000000;" parent="1" vertex="1">
                    <mxGeometry x="-631" y="650" width="560" height="60" as="geometry"/>
                </mxCell>
                <mxCell id="275" value="Cadastrar dívida" style="rounded=0;whiteSpace=wrap;html=1;fillColor=#e3c800;strokeColor=#B09500;fontColor=#000000;fontStyle=1" parent="1" vertex="1">
                    <mxGeometry x="2640" y="-600" width="1080" height="40" as="geometry"/>
                </mxCell>
                <mxCell id="280" value="Na escolha do serviço, o credor deve escolher apenas entre Negociar ou Protestar a dívida, além de comprar as ações dentro de cada opção. Ao finalizar o cadastro da dívida, o credor deve ser direcionado para a página da opção selelcionada no serviço." style="rounded=0;whiteSpace=wrap;html=1;fontSize=12;strokeColor=#36393d;fillColor=#cdeb8b;perimeterSpacing=20;spacingTop=0;spacing=16;fontColor=#000000;" parent="1" vertex="1">
                    <mxGeometry x="2640" y="-480" width="1080" height="40" as="geometry"/>
                </mxCell>
                <mxCell id="288" value="" style="rounded=0;whiteSpace=wrap;html=1;fontColor=#000033;strokeColor=#FFFFFF;fillColor=none;" parent="1" vertex="1">
                    <mxGeometry x="2720" y="-1380" width="520" height="210" as="geometry"/>
                </mxCell>
                <mxCell id="289" value="Código de verificação" style="rounded=0;whiteSpace=wrap;html=1;fillColor=#647687;strokeColor=#314354;fontColor=#ffffff;fontStyle=1" parent="1" vertex="1">
                    <mxGeometry x="2720" y="-1380" width="520" height="40" as="geometry"/>
                </mxCell>
                <mxCell id="290" value="Cadastro credor" style="rounded=1;whiteSpace=wrap;html=1;fillColor=#CCCCCC;fontStyle=0;strokeColor=#B09500;fontColor=#000000;" parent="1" vertex="1">
                    <mxGeometry x="2750" y="-1320" width="140" height="30" as="geometry"/>
                </mxCell>
                <mxCell id="291" value="Envio de documentos" style="rounded=1;whiteSpace=wrap;html=1;fillColor=#CCCCCC;fontStyle=0;strokeColor=#B09500;fontColor=#000000;" parent="1" vertex="1">
                    <mxGeometry x="2911" y="-1320" width="140" height="30" as="geometry"/>
                </mxCell>
                <mxCell id="294" value="A validação de código serve para facilitar o processo de cadastro devedor, preenchedo as informações já cadastradas pelo credor no cadastro da dívida." style="rounded=0;whiteSpace=wrap;html=1;fontSize=12;strokeColor=#36393d;fillColor=#cdeb8b;perimeterSpacing=20;spacingTop=0;spacing=16;fontColor=#000000;" parent="1" vertex="1">
                    <mxGeometry x="2720" y="-1223" width="520" height="53" as="geometry"/>
                </mxCell>
                <mxCell id="301" style="edgeStyle=none;html=1;entryX=0.5;entryY=1;entryDx=0;entryDy=0;fontSize=12;fontColor=#000000;strokeColor=#FFFF99;strokeWidth=2;exitX=0.5;exitY=1;exitDx=0;exitDy=0;" parent="1" source="295" target="296" edge="1">
                    <mxGeometry relative="1" as="geometry">
                        <Array as="points">
                            <mxPoint x="2820" y="-1250"/>
                            <mxPoint x="2981" y="-1250"/>
                        </Array>
                    </mxGeometry>
                </mxCell>
                <mxCell id="295" value="Sim, eu tenho!" style="rounded=1;whiteSpace=wrap;html=1;fillColor=#CCCCCC;fontStyle=0;strokeColor=#000000;fontColor=#000000;" parent="1" vertex="1">
                    <mxGeometry x="2750" y="-1320" width="140" height="30" as="geometry"/>
                </mxCell>
                <mxCell id="514" style="edgeStyle=none;html=1;entryX=0.25;entryY=1;entryDx=0;entryDy=0;strokeColor=#FFFF99;strokeWidth=2;" edge="1" parent="1" source="296" target="306">
                    <mxGeometry relative="1" as="geometry">
                        <Array as="points">
                            <mxPoint x="2980" y="-1400"/>
                            <mxPoint x="2850" y="-1400"/>
                        </Array>
                    </mxGeometry>
                </mxCell>
                <mxCell id="296" value="Validar código" style="rounded=1;whiteSpace=wrap;html=1;fillColor=#CCCCCC;fontStyle=0;strokeColor=#000000;fontColor=#000000;" parent="1" vertex="1">
                    <mxGeometry x="2911" y="-1320" width="140" height="30" as="geometry"/>
                </mxCell>
                <mxCell id="309" style="edgeStyle=none;html=1;entryX=0.5;entryY=1;entryDx=0;entryDy=0;fontSize=12;fontColor=#000000;strokeColor=#FFFF99;strokeWidth=2;" parent="1" source="300" target="306" edge="1">
                    <mxGeometry relative="1" as="geometry">
                        <Array as="points">
                            <mxPoint x="3280" y="-1305"/>
                            <mxPoint x="3280" y="-1410"/>
                            <mxPoint x="2980" y="-1410"/>
                        </Array>
                    </mxGeometry>
                </mxCell>
                <mxCell id="300" value="Não tenho..." style="rounded=1;whiteSpace=wrap;html=1;fillColor=#CCCCCC;fontStyle=0;strokeColor=#000000;fontColor=#000000;" parent="1" vertex="1">
                    <mxGeometry x="3072" y="-1320" width="140" height="30" as="geometry"/>
                </mxCell>
                <mxCell id="552" style="edgeStyle=none;html=1;entryX=0;entryY=0.5;entryDx=0;entryDy=0;strokeColor=#FFFF99;strokeWidth=2;" edge="1" parent="1" source="302" target="515">
                    <mxGeometry relative="1" as="geometry">
                        <Array as="points">
                            <mxPoint x="3320" y="-1555"/>
                            <mxPoint x="3320" y="-1505"/>
                        </Array>
                    </mxGeometry>
                </mxCell>
                <mxCell id="302" value="Termos de serviço" style="rounded=1;whiteSpace=wrap;html=1;fillColor=#CCCCCC;fontStyle=0;strokeColor=#000000;fontColor=#000000;" parent="1" vertex="1">
                    <mxGeometry x="3071" y="-1570" width="140" height="30" as="geometry"/>
                </mxCell>
                <mxCell id="303" value="Resumo do cadastro" style="rounded=1;whiteSpace=wrap;html=1;fillColor=#CCCCCC;fontStyle=0;strokeColor=#000000;fontColor=#000000;" parent="1" vertex="1">
                    <mxGeometry x="2910" y="-1570" width="140" height="30" as="geometry"/>
                </mxCell>
                <mxCell id="305" value="Cadastro devedor" style="rounded=1;whiteSpace=wrap;html=1;fillColor=#CCCCCC;fontStyle=0;strokeColor=#000000;fontColor=#000000;" parent="1" vertex="1">
                    <mxGeometry x="2750" y="-1570" width="140" height="30" as="geometry"/>
                </mxCell>
                <mxCell id="307" value="Cadastro devedor" style="rounded=0;whiteSpace=wrap;html=1;fillColor=#647687;strokeColor=#314354;fontColor=#ffffff;fontStyle=1" parent="1" vertex="1">
                    <mxGeometry x="2720" y="-1630" width="520" height="40" as="geometry"/>
                </mxCell>
                <mxCell id="308" value="Ao finalizar o cadastro, o devedor deve ser direcionado para o serviço que o credor cadastrou a dívida (eNegocie)" style="rounded=0;whiteSpace=wrap;html=1;fontSize=12;strokeColor=#36393d;fillColor=#cdeb8b;perimeterSpacing=20;spacingTop=0;spacing=16;fontColor=#000000;" parent="1" vertex="1">
                    <mxGeometry x="2720" y="-1513" width="520" height="53" as="geometry"/>
                </mxCell>
                <mxCell id="310" value="" style="rounded=0;whiteSpace=wrap;html=1;fontColor=#000033;strokeColor=#FFFFFF;fillColor=none;" parent="1" vertex="1">
                    <mxGeometry x="-1160" y="-2540" width="520" height="360" as="geometry"/>
                </mxCell>
                <mxCell id="311" value="Dados pessoais" style="rounded=1;whiteSpace=wrap;html=1;fillColor=#FFCCCC;fontStyle=0;strokeColor=#000000;fontColor=#000000;" parent="1" vertex="1">
                    <mxGeometry x="-1130" y="-2250" width="140" height="30" as="geometry"/>
                </mxCell>
                <mxCell id="313" value="Conversas" style="rounded=1;whiteSpace=wrap;html=1;fillColor=#FFCCCC;fontStyle=0;strokeColor=#000000;fontColor=#000000;" parent="1" vertex="1">
                    <mxGeometry x="-1130" y="-2350" width="140" height="30" as="geometry"/>
                </mxCell>
                <mxCell id="314" value="Menu side devedor" style="rounded=0;whiteSpace=wrap;html=1;fillColor=#e51400;strokeColor=#B20000;fontColor=#ffffff;fontStyle=1" parent="1" vertex="1">
                    <mxGeometry x="-1160" y="-2540" width="520" height="40" as="geometry"/>
                </mxCell>
                <mxCell id="316" value="Notificações" style="rounded=1;whiteSpace=wrap;html=1;fillColor=#FFCCCC;fontStyle=0;strokeColor=#000000;fontColor=#000000;" parent="1" vertex="1">
                    <mxGeometry x="-969" y="-2250" width="140" height="30" as="geometry"/>
                </mxCell>
                <mxCell id="317" value="Alterar senha" style="rounded=1;whiteSpace=wrap;html=1;fillColor=#FFCCCC;fontStyle=0;strokeColor=#000000;fontColor=#000000;" parent="1" vertex="1">
                    <mxGeometry x="-808" y="-2250" width="140" height="30" as="geometry"/>
                </mxCell>
                <mxCell id="323" value="eProteste" style="rounded=1;whiteSpace=wrap;html=1;fillColor=#FFFFCC;fontStyle=0;strokeColor=#B09500;fontColor=#000000;" parent="1" vertex="1">
                    <mxGeometry x="-530" y="-2450" width="140" height="30" as="geometry"/>
                </mxCell>
                <mxCell id="325" value="Menu side Credor" style="rounded=0;whiteSpace=wrap;html=1;fillColor=#e3c800;strokeColor=#B09500;fontColor=#000000;fontStyle=1" parent="1" vertex="1">
                    <mxGeometry x="-560" y="-2540" width="680" height="40" as="geometry"/>
                </mxCell>
                <mxCell id="327" value="Serviços" style="text;html=1;align=left;verticalAlign=middle;resizable=0;points=[];autosize=1;strokeColor=none;fillColor=none;fontSize=12;fontColor=#FFFFFF;fontStyle=1" parent="1" vertex="1">
                    <mxGeometry x="-530" y="-2480" width="70" height="20" as="geometry"/>
                </mxCell>
                <mxCell id="328" value="eNegocie" style="rounded=1;whiteSpace=wrap;html=1;fillColor=#FFFFCC;fontStyle=0;strokeColor=#B09500;fontColor=#000000;" parent="1" vertex="1">
                    <mxGeometry x="-369" y="-2450" width="140" height="30" as="geometry"/>
                </mxCell>
                <mxCell id="330" value="Cadastrar em lote" style="rounded=1;whiteSpace=wrap;html=1;fillColor=#FFFFCC;fontStyle=0;strokeColor=#B09500;fontColor=#000000;" parent="1" vertex="1">
                    <mxGeometry x="-369" y="-2350" width="140" height="30" as="geometry"/>
                </mxCell>
                <mxCell id="331" value="Dívidas" style="text;html=1;align=left;verticalAlign=middle;resizable=0;points=[];autosize=1;strokeColor=none;fillColor=none;fontSize=12;fontColor=#FFFFFF;fontStyle=1" parent="1" vertex="1">
                    <mxGeometry x="-530" y="-2380" width="60" height="20" as="geometry"/>
                </mxCell>
                <mxCell id="332" value="Conversas" style="rounded=1;whiteSpace=wrap;html=1;fillColor=#FFFFCC;fontStyle=0;strokeColor=#B09500;fontColor=#000000;" parent="1" vertex="1">
                    <mxGeometry x="-208" y="-2350" width="140" height="30" as="geometry"/>
                </mxCell>
                <mxCell id="333" value="Configurações" style="text;html=1;align=left;verticalAlign=middle;resizable=0;points=[];autosize=1;strokeColor=none;fillColor=none;fontSize=12;fontColor=#FFFFFF;fontStyle=1" parent="1" vertex="1">
                    <mxGeometry x="-530" y="-2280" width="100" height="20" as="geometry"/>
                </mxCell>
                <mxCell id="334" value="Dados pessoais" style="rounded=1;whiteSpace=wrap;html=1;fillColor=#FFFFCC;fontStyle=0;strokeColor=#B09500;fontColor=#000000;" parent="1" vertex="1">
                    <mxGeometry x="-530" y="-2250" width="140" height="30" as="geometry"/>
                </mxCell>
                <mxCell id="335" value="Notificações" style="rounded=1;whiteSpace=wrap;html=1;fillColor=#FFFFCC;fontStyle=0;strokeColor=#B09500;fontColor=#000000;" parent="1" vertex="1">
                    <mxGeometry x="-369" y="-2250" width="140" height="30" as="geometry"/>
                </mxCell>
                <mxCell id="336" value="Alterar senha" style="rounded=1;whiteSpace=wrap;html=1;fillColor=#FFFFCC;fontStyle=0;strokeColor=#B09500;fontColor=#000000;" parent="1" vertex="1">
                    <mxGeometry x="-208" y="-2250" width="140" height="30" as="geometry"/>
                </mxCell>
                <mxCell id="337" value="Dívidas" style="text;html=1;align=left;verticalAlign=middle;resizable=0;points=[];autosize=1;strokeColor=none;fillColor=none;fontSize=12;fontColor=#FFFFFF;fontStyle=1" parent="1" vertex="1">
                    <mxGeometry x="-1130" y="-2380" width="60" height="20" as="geometry"/>
                </mxCell>
                <mxCell id="338" value="Configurações" style="text;html=1;align=left;verticalAlign=middle;resizable=0;points=[];autosize=1;strokeColor=none;fillColor=none;fontSize=12;fontColor=#FFFFFF;fontStyle=1" parent="1" vertex="1">
                    <mxGeometry x="-1130" y="-2280" width="100" height="20" as="geometry"/>
                </mxCell>
                <mxCell id="339" value="Administrador" style="rounded=1;whiteSpace=wrap;html=1;fillColor=#fa6800;strokeColor=#C73500;fontColor=#000000;fontStyle=1" parent="1" vertex="1">
                    <mxGeometry x="-1470" y="-2190" width="192" height="60" as="geometry"/>
                </mxCell>
                <mxCell id="340" value="Backoffice" style="rounded=1;whiteSpace=wrap;html=1;fillColor=#1ba1e2;strokeColor=#006EAF;fontColor=#ffffff;fontStyle=1" parent="1" vertex="1">
                    <mxGeometry x="-1470" y="-2270" width="192" height="60" as="geometry"/>
                </mxCell>
                <mxCell id="341" value="Cartório" style="rounded=1;whiteSpace=wrap;html=1;fillColor=#76608a;strokeColor=#432D57;fontColor=#ffffff;fontStyle=1" parent="1" vertex="1">
                    <mxGeometry x="-1470" y="-2110" width="192" height="60" as="geometry"/>
                </mxCell>
                <mxCell id="342" value="" style="rounded=0;whiteSpace=wrap;html=1;fontColor=#000033;strokeColor=#FFFFFF;fillColor=none;" parent="1" vertex="1">
                    <mxGeometry x="200" y="-2540" width="680" height="680" as="geometry"/>
                </mxCell>
                <mxCell id="343" value="eProteste" style="rounded=1;whiteSpace=wrap;html=1;fillColor=#66FFFF;fontStyle=0;strokeColor=#003333;fontColor=#000000;" parent="1" vertex="1">
                    <mxGeometry x="230" y="-2450" width="140" height="30" as="geometry"/>
                </mxCell>
                <mxCell id="344" value="Menu side Backoffice" style="rounded=0;whiteSpace=wrap;html=1;fillColor=#1ba1e2;strokeColor=#006EAF;fontColor=#ffffff;fontStyle=1" parent="1" vertex="1">
                    <mxGeometry x="200" y="-2540" width="680" height="40" as="geometry"/>
                </mxCell>
                <mxCell id="345" value="Serviços" style="text;html=1;align=left;verticalAlign=middle;resizable=0;points=[];autosize=1;strokeColor=none;fillColor=none;fontSize=12;fontColor=#FFFFFF;fontStyle=1" parent="1" vertex="1">
                    <mxGeometry x="230" y="-2480" width="70" height="20" as="geometry"/>
                </mxCell>
                <mxCell id="346" value="eNegocie" style="rounded=1;whiteSpace=wrap;html=1;fillColor=#66FFFF;fontStyle=0;strokeColor=#003333;fontColor=#000000;" parent="1" vertex="1">
                    <mxGeometry x="391" y="-2450" width="140" height="30" as="geometry"/>
                </mxCell>
                <mxCell id="348" value="Cadastrar em lote" style="rounded=1;whiteSpace=wrap;html=1;fillColor=#66FFFF;fontStyle=0;strokeColor=#003333;fontColor=#000000;" parent="1" vertex="1">
                    <mxGeometry x="391" y="-2350" width="140" height="30" as="geometry"/>
                </mxCell>
                <mxCell id="349" value="Dívidas" style="text;html=1;align=left;verticalAlign=middle;resizable=0;points=[];autosize=1;strokeColor=none;fillColor=none;fontSize=12;fontColor=#FFFFFF;fontStyle=1" parent="1" vertex="1">
                    <mxGeometry x="230" y="-2380" width="60" height="20" as="geometry"/>
                </mxCell>
                <mxCell id="350" value="Conversas" style="rounded=1;whiteSpace=wrap;html=1;fillColor=#66FFFF;fontStyle=0;strokeColor=#003333;fontColor=#000000;" parent="1" vertex="1">
                    <mxGeometry x="552" y="-2350" width="140" height="30" as="geometry"/>
                </mxCell>
                <mxCell id="351" value="Configurações" style="text;html=1;align=left;verticalAlign=middle;resizable=0;points=[];autosize=1;strokeColor=none;fillColor=none;fontSize=12;fontColor=#FFFFFF;fontStyle=1" parent="1" vertex="1">
                    <mxGeometry x="230" y="-2280" width="100" height="20" as="geometry"/>
                </mxCell>
                <mxCell id="352" value="Dados pessoais" style="rounded=1;whiteSpace=wrap;html=1;fillColor=#66FFFF;fontStyle=0;strokeColor=#003333;fontColor=#000000;" parent="1" vertex="1">
                    <mxGeometry x="230" y="-2250" width="140" height="30" as="geometry"/>
                </mxCell>
                <mxCell id="353" value="Notificações" style="rounded=1;whiteSpace=wrap;html=1;fillColor=#66FFFF;fontStyle=0;strokeColor=#003333;fontColor=#000000;" parent="1" vertex="1">
                    <mxGeometry x="391" y="-2250" width="140" height="30" as="geometry"/>
                </mxCell>
                <mxCell id="354" value="Alterar senha" style="rounded=1;whiteSpace=wrap;html=1;fillColor=#66FFFF;fontStyle=0;strokeColor=#003333;fontColor=#000000;" parent="1" vertex="1">
                    <mxGeometry x="552" y="-2250" width="140" height="30" as="geometry"/>
                </mxCell>
                <mxCell id="355" value="Backoffice" style="text;html=1;align=left;verticalAlign=middle;resizable=0;points=[];autosize=1;strokeColor=none;fillColor=none;fontSize=12;fontColor=#FFFFFF;fontStyle=1" parent="1" vertex="1">
                    <mxGeometry x="230" y="-2180" width="80" height="20" as="geometry"/>
                </mxCell>
                <mxCell id="356" value="Atribuir permissões" style="rounded=1;whiteSpace=wrap;html=1;fillColor=#66FFFF;fontStyle=0;strokeColor=#003333;fontColor=#000000;" parent="1" vertex="1">
                    <mxGeometry x="230" y="-2150" width="140" height="30" as="geometry"/>
                </mxCell>
                <mxCell id="357" value="Solicitações pendentes" style="rounded=1;whiteSpace=wrap;html=1;fillColor=#66FFFF;fontStyle=0;strokeColor=#003333;fontColor=#000000;" parent="1" vertex="1">
                    <mxGeometry x="391" y="-2150" width="140" height="30" as="geometry"/>
                </mxCell>
                <mxCell id="358" value="Detalhes de usuário" style="rounded=1;whiteSpace=wrap;html=1;fillColor=#66FFFF;fontStyle=0;strokeColor=#003333;fontColor=#000000;" parent="1" vertex="1">
                    <mxGeometry x="552" y="-2150" width="140" height="30" as="geometry"/>
                </mxCell>
                <mxCell id="359" value="Importar devedores" style="rounded=1;whiteSpace=wrap;html=1;fillColor=#66FFFF;fontStyle=0;strokeColor=#003333;fontColor=#000000;" parent="1" vertex="1">
                    <mxGeometry x="713" y="-2150" width="140" height="30" as="geometry"/>
                </mxCell>
                <mxCell id="360" value="Cartório" style="text;html=1;align=left;verticalAlign=middle;resizable=0;points=[];autosize=1;strokeColor=none;fillColor=none;fontSize=12;fontColor=#FFFFFF;fontStyle=1" parent="1" vertex="1">
                    <mxGeometry x="230" y="-2080" width="60" height="20" as="geometry"/>
                </mxCell>
                <mxCell id="361" value="Cartórios" style="rounded=1;whiteSpace=wrap;html=1;fillColor=#66FFFF;fontStyle=0;strokeColor=#003333;fontColor=#000000;" parent="1" vertex="1">
                    <mxGeometry x="230" y="-2050" width="140" height="30" as="geometry"/>
                </mxCell>
                <mxCell id="362" value="Template do cartório" style="rounded=1;whiteSpace=wrap;html=1;fillColor=#66FFFF;fontStyle=0;strokeColor=#003333;fontColor=#000000;" parent="1" vertex="1">
                    <mxGeometry x="391" y="-2050" width="140" height="30" as="geometry"/>
                </mxCell>
                <mxCell id="365" value="Repasse" style="rounded=1;whiteSpace=wrap;html=1;fillColor=#66FFFF;fontStyle=0;strokeColor=#003333;fontColor=#000000;" parent="1" vertex="1">
                    <mxGeometry x="230" y="-1950" width="140" height="30" as="geometry"/>
                </mxCell>
                <mxCell id="367" value="Relatórios" style="text;html=1;align=left;verticalAlign=middle;resizable=0;points=[];autosize=1;strokeColor=none;fillColor=none;fontSize=12;fontColor=#FFFFFF;fontStyle=1" parent="1" vertex="1">
                    <mxGeometry x="230" y="-1980" width="70" height="20" as="geometry"/>
                </mxCell>
                <mxCell id="368" value="" style="rounded=0;whiteSpace=wrap;html=1;fontColor=#000033;strokeColor=#FFFFFF;fillColor=none;" parent="1" vertex="1">
                    <mxGeometry x="960" y="-2540" width="680" height="680" as="geometry"/>
                </mxCell>
                <mxCell id="369" value="eProteste" style="rounded=1;whiteSpace=wrap;html=1;fillColor=#FF9933;fontStyle=0;strokeColor=#331A00;fontColor=#000000;" parent="1" vertex="1">
                    <mxGeometry x="990" y="-2450" width="140" height="30" as="geometry"/>
                </mxCell>
                <mxCell id="370" value="Menu side Administrador" style="rounded=0;whiteSpace=wrap;html=1;fillColor=#fa6800;strokeColor=#C73500;fontColor=#000000;fontStyle=1" parent="1" vertex="1">
                    <mxGeometry x="960" y="-2540" width="680" height="40" as="geometry"/>
                </mxCell>
                <mxCell id="371" value="Serviços" style="text;html=1;align=left;verticalAlign=middle;resizable=0;points=[];autosize=1;strokeColor=none;fillColor=none;fontSize=12;fontColor=#FFFFFF;fontStyle=1" parent="1" vertex="1">
                    <mxGeometry x="990" y="-2480" width="70" height="20" as="geometry"/>
                </mxCell>
                <mxCell id="372" value="eNegocie" style="rounded=1;whiteSpace=wrap;html=1;fillColor=#FF9933;fontStyle=0;strokeColor=#331A00;fontColor=#000000;" parent="1" vertex="1">
                    <mxGeometry x="1151" y="-2450" width="140" height="30" as="geometry"/>
                </mxCell>
                <mxCell id="374" value="Cadastrar em lote" style="rounded=1;whiteSpace=wrap;html=1;fillColor=#FF9933;fontStyle=0;strokeColor=#331A00;fontColor=#000000;" parent="1" vertex="1">
                    <mxGeometry x="1151" y="-2350" width="140" height="30" as="geometry"/>
                </mxCell>
                <mxCell id="375" value="Dívidas" style="text;html=1;align=left;verticalAlign=middle;resizable=0;points=[];autosize=1;strokeColor=none;fillColor=none;fontSize=12;fontColor=#FFFFFF;fontStyle=1" parent="1" vertex="1">
                    <mxGeometry x="990" y="-2380" width="60" height="20" as="geometry"/>
                </mxCell>
                <mxCell id="376" value="Conversas" style="rounded=1;whiteSpace=wrap;html=1;fillColor=#FF9933;fontStyle=0;strokeColor=#331A00;fontColor=#000000;" parent="1" vertex="1">
                    <mxGeometry x="1312" y="-2350" width="140" height="30" as="geometry"/>
                </mxCell>
                <mxCell id="377" value="Configurações" style="text;html=1;align=left;verticalAlign=middle;resizable=0;points=[];autosize=1;strokeColor=none;fillColor=none;fontSize=12;fontColor=#FFFFFF;fontStyle=1" parent="1" vertex="1">
                    <mxGeometry x="990" y="-2280" width="100" height="20" as="geometry"/>
                </mxCell>
                <mxCell id="378" value="Dados pessoais" style="rounded=1;whiteSpace=wrap;html=1;fillColor=#FF9933;fontStyle=0;strokeColor=#331A00;fontColor=#000000;" parent="1" vertex="1">
                    <mxGeometry x="990" y="-2250" width="140" height="30" as="geometry"/>
                </mxCell>
                <mxCell id="379" value="Notificações" style="rounded=1;whiteSpace=wrap;html=1;fillColor=#FF9933;fontStyle=0;strokeColor=#331A00;fontColor=#000000;" parent="1" vertex="1">
                    <mxGeometry x="1151" y="-2250" width="140" height="30" as="geometry"/>
                </mxCell>
                <mxCell id="380" value="Alterar senha" style="rounded=1;whiteSpace=wrap;html=1;fillColor=#FF9933;fontStyle=0;strokeColor=#331A00;fontColor=#000000;" parent="1" vertex="1">
                    <mxGeometry x="1312" y="-2250" width="140" height="30" as="geometry"/>
                </mxCell>
                <mxCell id="381" value="Backoffice" style="text;html=1;align=left;verticalAlign=middle;resizable=0;points=[];autosize=1;strokeColor=none;fillColor=none;fontSize=12;fontColor=#FFFFFF;fontStyle=1" parent="1" vertex="1">
                    <mxGeometry x="990" y="-2180" width="80" height="20" as="geometry"/>
                </mxCell>
                <mxCell id="382" value="Atribuir permissões" style="rounded=1;whiteSpace=wrap;html=1;fillColor=#FF9933;fontStyle=0;strokeColor=#331A00;fontColor=#000000;" parent="1" vertex="1">
                    <mxGeometry x="990" y="-2150" width="140" height="30" as="geometry"/>
                </mxCell>
                <mxCell id="383" value="Solicitações pendentes" style="rounded=1;whiteSpace=wrap;html=1;fillColor=#FF9933;fontStyle=0;strokeColor=#331A00;fontColor=#000000;" parent="1" vertex="1">
                    <mxGeometry x="1151" y="-2150" width="140" height="30" as="geometry"/>
                </mxCell>
                <mxCell id="384" value="Detalhes de usuário" style="rounded=1;whiteSpace=wrap;html=1;fillColor=#FF9933;fontStyle=0;strokeColor=#331A00;fontColor=#000000;" parent="1" vertex="1">
                    <mxGeometry x="1312" y="-2150" width="140" height="30" as="geometry"/>
                </mxCell>
                <mxCell id="385" value="Importar devedores" style="rounded=1;whiteSpace=wrap;html=1;fillColor=#FF9933;fontStyle=0;strokeColor=#331A00;fontColor=#000000;" parent="1" vertex="1">
                    <mxGeometry x="1473" y="-2150" width="140" height="30" as="geometry"/>
                </mxCell>
                <mxCell id="386" value="Cartório" style="text;html=1;align=left;verticalAlign=middle;resizable=0;points=[];autosize=1;strokeColor=none;fillColor=none;fontSize=12;fontColor=#FFFFFF;fontStyle=1" parent="1" vertex="1">
                    <mxGeometry x="990" y="-2080" width="60" height="20" as="geometry"/>
                </mxCell>
                <mxCell id="387" value="Cartórios" style="rounded=1;whiteSpace=wrap;html=1;fillColor=#FF9933;fontStyle=0;strokeColor=#331A00;fontColor=#000000;" parent="1" vertex="1">
                    <mxGeometry x="990" y="-2050" width="140" height="30" as="geometry"/>
                </mxCell>
                <mxCell id="388" value="Template do cartório" style="rounded=1;whiteSpace=wrap;html=1;fillColor=#FF9933;fontStyle=0;strokeColor=#331A00;fontColor=#000000;" parent="1" vertex="1">
                    <mxGeometry x="1151" y="-2050" width="140" height="30" as="geometry"/>
                </mxCell>
                <mxCell id="389" value="Repasse" style="rounded=1;whiteSpace=wrap;html=1;fillColor=#FF9933;fontStyle=0;strokeColor=#331A00;fontColor=#000000;" parent="1" vertex="1">
                    <mxGeometry x="990" y="-1950" width="140" height="30" as="geometry"/>
                </mxCell>
                <mxCell id="390" value="Relatórios" style="text;html=1;align=left;verticalAlign=middle;resizable=0;points=[];autosize=1;strokeColor=none;fillColor=none;fontSize=12;fontColor=#FFFFFF;fontStyle=1" parent="1" vertex="1">
                    <mxGeometry x="990" y="-1980" width="70" height="20" as="geometry"/>
                </mxCell>
                <mxCell id="391" value="" style="rounded=0;whiteSpace=wrap;html=1;fontColor=#000033;strokeColor=#FFFFFF;fillColor=none;" parent="1" vertex="1">
                    <mxGeometry x="1720" y="-2540" width="530" height="560" as="geometry"/>
                </mxCell>
                <mxCell id="392" value="eProteste" style="rounded=1;whiteSpace=wrap;html=1;fillColor=#E5CCFF;fontStyle=0;strokeColor=#190033;fontColor=#000000;" parent="1" vertex="1">
                    <mxGeometry x="1750" y="-2450" width="140" height="30" as="geometry"/>
                </mxCell>
                <mxCell id="393" value="Menu side Cartório" style="rounded=0;whiteSpace=wrap;html=1;fillColor=#76608a;strokeColor=#432D57;fontColor=#ffffff;fontStyle=1" parent="1" vertex="1">
                    <mxGeometry x="1720" y="-2540" width="530" height="40" as="geometry"/>
                </mxCell>
                <mxCell id="394" value="Serviços" style="text;html=1;align=left;verticalAlign=middle;resizable=0;points=[];autosize=1;strokeColor=none;fillColor=none;fontSize=12;fontColor=#FFFFFF;fontStyle=1" parent="1" vertex="1">
                    <mxGeometry x="1750" y="-2480" width="70" height="20" as="geometry"/>
                </mxCell>
                <mxCell id="395" value="eNegocie" style="rounded=1;whiteSpace=wrap;html=1;fillColor=#E5CCFF;fontStyle=0;strokeColor=#190033;fontColor=#000000;" parent="1" vertex="1">
                    <mxGeometry x="1911" y="-2450" width="140" height="30" as="geometry"/>
                </mxCell>
                <mxCell id="398" value="Dívidas" style="text;html=1;align=left;verticalAlign=middle;resizable=0;points=[];autosize=1;strokeColor=none;fillColor=none;fontSize=12;fontColor=#FFFFFF;fontStyle=1" parent="1" vertex="1">
                    <mxGeometry x="1750" y="-2380" width="60" height="20" as="geometry"/>
                </mxCell>
                <mxCell id="399" value="Conversas" style="rounded=1;whiteSpace=wrap;html=1;fillColor=#E5CCFF;fontStyle=0;strokeColor=#190033;fontColor=#000000;" parent="1" vertex="1">
                    <mxGeometry x="1750" y="-2350" width="140" height="30" as="geometry"/>
                </mxCell>
                <mxCell id="400" value="Configurações" style="text;html=1;align=left;verticalAlign=middle;resizable=0;points=[];autosize=1;strokeColor=none;fillColor=none;fontSize=12;fontColor=#FFFFFF;fontStyle=1" parent="1" vertex="1">
                    <mxGeometry x="1750" y="-2280" width="100" height="20" as="geometry"/>
                </mxCell>
                <mxCell id="401" value="Dados pessoais" style="rounded=1;whiteSpace=wrap;html=1;fillColor=#E5CCFF;fontStyle=0;strokeColor=#190033;fontColor=#000000;" parent="1" vertex="1">
                    <mxGeometry x="1750" y="-2250" width="140" height="30" as="geometry"/>
                </mxCell>
                <mxCell id="402" value="Notificações" style="rounded=1;whiteSpace=wrap;html=1;fillColor=#E5CCFF;fontStyle=0;strokeColor=#190033;fontColor=#000000;" parent="1" vertex="1">
                    <mxGeometry x="1911" y="-2250" width="140" height="30" as="geometry"/>
                </mxCell>
                <mxCell id="403" value="Alterar senha" style="rounded=1;whiteSpace=wrap;html=1;fillColor=#E5CCFF;fontStyle=0;strokeColor=#190033;fontColor=#000000;" parent="1" vertex="1">
                    <mxGeometry x="2072" y="-2250" width="140" height="30" as="geometry"/>
                </mxCell>
                <mxCell id="409" value="Cartório" style="text;html=1;align=left;verticalAlign=middle;resizable=0;points=[];autosize=1;strokeColor=none;fillColor=none;fontSize=12;fontColor=#FFFFFF;fontStyle=1" parent="1" vertex="1">
                    <mxGeometry x="1750" y="-2180" width="60" height="20" as="geometry"/>
                </mxCell>
                <mxCell id="410" value="Cartórios" style="rounded=1;whiteSpace=wrap;html=1;fillColor=#E5CCFF;fontStyle=0;strokeColor=#190033;fontColor=#000000;" parent="1" vertex="1">
                    <mxGeometry x="1750" y="-2150" width="140" height="30" as="geometry"/>
                </mxCell>
                <mxCell id="411" value="Template do cartório" style="rounded=1;whiteSpace=wrap;html=1;fillColor=#E5CCFF;fontStyle=0;strokeColor=#190033;fontColor=#000000;" parent="1" vertex="1">
                    <mxGeometry x="1911" y="-2150" width="140" height="30" as="geometry"/>
                </mxCell>
                <mxCell id="412" value="Repasse" style="rounded=1;whiteSpace=wrap;html=1;fillColor=#E5CCFF;fontStyle=0;strokeColor=#190033;fontColor=#000000;" parent="1" vertex="1">
                    <mxGeometry x="1750" y="-2050" width="140" height="30" as="geometry"/>
                </mxCell>
                <mxCell id="413" value="Relatórios" style="text;html=1;align=left;verticalAlign=middle;resizable=0;points=[];autosize=1;strokeColor=none;fillColor=none;fontSize=12;fontColor=#FFFFFF;fontStyle=1" parent="1" vertex="1">
                    <mxGeometry x="1750" y="-2080" width="70" height="20" as="geometry"/>
                </mxCell>
                <mxCell id="414" value="" style="rounded=0;whiteSpace=wrap;html=1;fontColor=#000033;strokeColor=#FFFFFF;fillColor=none;" parent="1" vertex="1">
                    <mxGeometry x="2310" y="-2540" width="950" height="270" as="geometry"/>
                </mxCell>
                <mxCell id="416" value="Nome do usuário" style="rounded=1;whiteSpace=wrap;html=1;fillColor=#66B2FF;fontStyle=0;strokeColor=#000000;fontColor=#000000;" parent="1" vertex="1">
                    <mxGeometry x="2501" y="-2450" width="140" height="30" as="geometry"/>
                </mxCell>
                <mxCell id="417" value="Menu offcanvas" style="rounded=1;whiteSpace=wrap;html=1;fillColor=#66B2FF;fontStyle=0;strokeColor=#000000;fontColor=#000000;" parent="1" vertex="1">
                    <mxGeometry x="2340" y="-2450" width="140" height="30" as="geometry"/>
                </mxCell>
                <mxCell id="418" value="Master page" style="rounded=0;whiteSpace=wrap;html=1;fillColor=#0050ef;strokeColor=#001DBC;fontColor=#ffffff;fontStyle=1" parent="1" vertex="1">
                    <mxGeometry x="2310" y="-2540" width="950" height="40" as="geometry"/>
                </mxCell>
                <mxCell id="423" value="Perfil de usuário" style="rounded=1;whiteSpace=wrap;html=1;fillColor=#66B2FF;fontStyle=0;strokeColor=#000000;fontColor=#000000;" parent="1" vertex="1">
                    <mxGeometry x="2662" y="-2450" width="140" height="30" as="geometry"/>
                </mxCell>
                <mxCell id="424" value="Botão sair" style="rounded=1;whiteSpace=wrap;html=1;fillColor=#66B2FF;fontStyle=0;strokeColor=#000000;fontColor=#000000;" parent="1" vertex="1">
                    <mxGeometry x="2823" y="-2450" width="140" height="30" as="geometry"/>
                </mxCell>
                <mxCell id="425" value="" style="group" parent="1" vertex="1" connectable="0">
                    <mxGeometry x="3140" y="-2450" width="80" height="150" as="geometry"/>
                </mxCell>
                <mxCell id="426" value="Idioma" style="rounded=1;whiteSpace=wrap;html=1;fontStyle=0;" parent="425" vertex="1">
                    <mxGeometry width="80" height="30" as="geometry"/>
                </mxCell>
                <mxCell id="427" value="Português" style="rounded=1;whiteSpace=wrap;html=1;fontStyle=0;" parent="425" vertex="1">
                    <mxGeometry y="40" width="80" height="30" as="geometry"/>
                </mxCell>
                <mxCell id="428" value="Inglês" style="rounded=1;whiteSpace=wrap;html=1;fontStyle=0;" parent="425" vertex="1">
                    <mxGeometry y="80" width="80" height="30" as="geometry"/>
                </mxCell>
                <mxCell id="429" value="Espanhol" style="rounded=1;whiteSpace=wrap;html=1;fontStyle=0;" parent="425" vertex="1">
                    <mxGeometry y="120" width="80" height="30" as="geometry"/>
                </mxCell>
                <mxCell id="431" value="Cadastrar dívida" style="rounded=1;whiteSpace=wrap;html=1;fillColor=#FFFFCC;fontStyle=0;strokeColor=#B09500;fontColor=#000000;" parent="1" vertex="1">
                    <mxGeometry x="-530" y="-2350" width="140" height="30" as="geometry"/>
                </mxCell>
                <mxCell id="432" value="Cadastrar dívida" style="rounded=1;whiteSpace=wrap;html=1;fillColor=#66FFFF;fontStyle=0;strokeColor=#003333;fontColor=#000000;" parent="1" vertex="1">
                    <mxGeometry x="230" y="-2350" width="140" height="30" as="geometry"/>
                </mxCell>
                <mxCell id="433" value="Cadastrar dívida" style="rounded=1;whiteSpace=wrap;html=1;fillColor=#FF9933;fontStyle=0;strokeColor=#331A00;fontColor=#000000;" parent="1" vertex="1">
                    <mxGeometry x="990" y="-2350" width="140" height="30" as="geometry"/>
                </mxCell>
                <mxCell id="435" style="edgeStyle=none;html=1;exitX=0.5;exitY=1;exitDx=0;exitDy=0;entryX=0.503;entryY=0.667;entryDx=0;entryDy=0;entryPerimeter=0;" parent="1" edge="1">
                    <mxGeometry relative="1" as="geometry">
                        <mxPoint x="1820.000000000001" y="-2320" as="sourcePoint"/>
                        <mxPoint x="1820.420000000001" y="-2329.99" as="targetPoint"/>
                    </mxGeometry>
                </mxCell>
                <mxCell id="436" value="Relatórios" style="text;html=1;align=left;verticalAlign=middle;resizable=0;points=[];autosize=1;strokeColor=none;fillColor=none;fontSize=12;fontColor=#FFFFFF;fontStyle=1" parent="1" vertex="1">
                    <mxGeometry x="-530" y="-2180" width="70" height="20" as="geometry"/>
                </mxCell>
                <mxCell id="437" value="Repasse" style="rounded=1;whiteSpace=wrap;html=1;fillColor=#FFFFCC;fontStyle=0;strokeColor=#B09500;fontColor=#000000;" parent="1" vertex="1">
                    <mxGeometry x="-530" y="-2150" width="140" height="30" as="geometry"/>
                </mxCell>
                <mxCell id="444" value="Serviços" style="text;html=1;align=left;verticalAlign=middle;resizable=0;points=[];autosize=1;strokeColor=none;fillColor=none;fontSize=12;fontColor=#FFFFFF;fontStyle=1" parent="1" vertex="1">
                    <mxGeometry x="-1130" y="-2480" width="70" height="20" as="geometry"/>
                </mxCell>
                <mxCell id="445" value="eProteste" style="rounded=1;whiteSpace=wrap;html=1;fillColor=#FFCCCC;fontStyle=0;strokeColor=#000000;fontColor=#000000;" parent="1" vertex="1">
                    <mxGeometry x="-1130" y="-2450" width="140" height="30" as="geometry"/>
                </mxCell>
                <mxCell id="446" value="eNegocie" style="rounded=1;whiteSpace=wrap;html=1;fillColor=#FFCCCC;fontStyle=0;strokeColor=#000000;fontColor=#000000;" parent="1" vertex="1">
                    <mxGeometry x="-970" y="-2450" width="140" height="30" as="geometry"/>
                </mxCell>
                <mxCell id="448" value="Comprar notificações" style="rounded=1;whiteSpace=wrap;html=1;fillColor=#FFFFCC;fontStyle=0;strokeColor=#B09500;fontColor=#000000;" parent="1" vertex="1">
                    <mxGeometry x="-48" y="-2350" width="140" height="30" as="geometry"/>
                </mxCell>
                <mxCell id="453" value="" style="shape=image;html=1;verticalLabelPosition=bottom;verticalAlign=top;imageAspect=1;aspect=fixed;image=img/clipart/Gear_128x128.png" parent="1" vertex="1">
                    <mxGeometry x="-1856.21" y="-2450" width="26.43" height="31" as="geometry"/>
                </mxCell>
                <mxCell id="454" value="Alertas" style="rounded=1;whiteSpace=wrap;html=1;fillColor=#66B2FF;fontStyle=0;strokeColor=#000000;fontColor=#000000;" parent="1" vertex="1">
                    <mxGeometry x="2980" y="-2450" width="140" height="30" as="geometry"/>
                </mxCell>
                <mxCell id="463" value="" style="rounded=0;whiteSpace=wrap;html=1;fontColor=#000033;strokeColor=#FFFFFF;fillColor=none;" vertex="1" parent="1">
                    <mxGeometry x="3800" y="-360" width="840" height="360" as="geometry"/>
                </mxCell>
                <mxCell id="464" value="Quantidade por página" style="rounded=1;whiteSpace=wrap;html=1;fillColor=#FFFFCC;fontStyle=0;strokeColor=#B09500;fontColor=#000000;" vertex="1" parent="1">
                    <mxGeometry x="3830" y="-260" width="140" height="30" as="geometry"/>
                </mxCell>
                <mxCell id="465" value="eNegocie - Credor" style="rounded=0;whiteSpace=wrap;html=1;fillColor=#e3c800;strokeColor=#B09500;fontColor=#000000;fontStyle=1" vertex="1" parent="1">
                    <mxGeometry x="3800" y="-360" width="840" height="40" as="geometry"/>
                </mxCell>
                <mxCell id="479" value="Ordernar por" style="rounded=1;whiteSpace=wrap;html=1;fillColor=#FFFFCC;fontStyle=0;strokeColor=#B09500;fontColor=#000000;" vertex="1" parent="1">
                    <mxGeometry x="3990" y="-260" width="140" height="30" as="geometry"/>
                </mxCell>
                <mxCell id="480" value="Input de pesquisa" style="rounded=1;whiteSpace=wrap;html=1;fillColor=#FFFFCC;fontStyle=0;strokeColor=#B09500;fontColor=#000000;" vertex="1" parent="1">
                    <mxGeometry x="4150" y="-260" width="140" height="30" as="geometry"/>
                </mxCell>
                <mxCell id="481" value="Filtros" style="text;html=1;align=left;verticalAlign=middle;resizable=0;points=[];autosize=1;strokeColor=none;fillColor=none;fontSize=12;fontColor=#FFFFFF;fontStyle=1" vertex="1" parent="1">
                    <mxGeometry x="3830" y="-300" width="50" height="20" as="geometry"/>
                </mxCell>
                <mxCell id="482" value="Botões" style="text;html=1;align=left;verticalAlign=middle;resizable=0;points=[];autosize=1;strokeColor=none;fillColor=none;fontSize=12;fontColor=#FFFFFF;fontStyle=1" vertex="1" parent="1">
                    <mxGeometry x="3830" y="-200" width="60" height="20" as="geometry"/>
                </mxCell>
                <mxCell id="483" value="Editar em lote" style="rounded=1;whiteSpace=wrap;html=1;fillColor=#FFFFCC;fontStyle=0;strokeColor=#B09500;fontColor=#000000;" vertex="1" parent="1">
                    <mxGeometry x="3830" y="-160" width="140" height="30" as="geometry"/>
                </mxCell>
                <mxCell id="484" value="Notificar em lote" style="rounded=1;whiteSpace=wrap;html=1;fillColor=#FFFFCC;fontStyle=0;strokeColor=#B09500;fontColor=#000000;" vertex="1" parent="1">
                    <mxGeometry x="3990" y="-160" width="140" height="30" as="geometry"/>
                </mxCell>
                <mxCell id="485" value="Filtro avançado" style="rounded=1;whiteSpace=wrap;html=1;fillColor=#FFFFCC;fontStyle=0;strokeColor=#B09500;fontColor=#000000;" vertex="1" parent="1">
                    <mxGeometry x="4150" y="-160" width="140" height="30" as="geometry"/>
                </mxCell>
                <mxCell id="486" value="Opções da dívida" style="text;html=1;align=left;verticalAlign=middle;resizable=0;points=[];autosize=1;strokeColor=none;fillColor=none;fontSize=12;fontColor=#FFFFFF;fontStyle=1" vertex="1" parent="1">
                    <mxGeometry x="3830" y="-100" width="110" height="20" as="geometry"/>
                </mxCell>
                <mxCell id="487" value="Editar" style="rounded=1;whiteSpace=wrap;html=1;fillColor=#FFFFCC;fontStyle=0;strokeColor=#B09500;fontColor=#000000;" vertex="1" parent="1">
                    <mxGeometry x="3830" y="-60" width="140" height="30" as="geometry"/>
                </mxCell>
                <mxCell id="488" value="Conversar" style="rounded=1;whiteSpace=wrap;html=1;fillColor=#FFFFCC;fontStyle=0;strokeColor=#B09500;fontColor=#000000;" vertex="1" parent="1">
                    <mxGeometry x="3990" y="-60" width="140" height="30" as="geometry"/>
                </mxCell>
                <mxCell id="489" value="Notificar" style="rounded=1;whiteSpace=wrap;html=1;fillColor=#FFFFCC;fontStyle=0;strokeColor=#B09500;fontColor=#000000;" vertex="1" parent="1">
                    <mxGeometry x="4150" y="-60" width="140" height="30" as="geometry"/>
                </mxCell>
                <mxCell id="490" value="Cancelar" style="rounded=1;whiteSpace=wrap;html=1;fillColor=#FFFFCC;fontStyle=0;strokeColor=#B09500;fontColor=#000000;" vertex="1" parent="1">
                    <mxGeometry x="4470" y="-60" width="140" height="30" as="geometry"/>
                </mxCell>
                <mxCell id="491" value="Pagar" style="rounded=1;whiteSpace=wrap;html=1;fillColor=#FFFFCC;fontStyle=0;strokeColor=#B09500;fontColor=#000000;" vertex="1" parent="1">
                    <mxGeometry x="4310" y="-60" width="140" height="30" as="geometry"/>
                </mxCell>
                <mxCell id="493" value="" style="rounded=0;whiteSpace=wrap;html=1;fontColor=#000033;strokeColor=#FFFFFF;fillColor=none;" vertex="1" parent="1">
                    <mxGeometry x="4720" y="-360" width="680" height="360" as="geometry"/>
                </mxCell>
                <mxCell id="494" value="Quantidade por página" style="rounded=1;whiteSpace=wrap;html=1;fillColor=#FFFFCC;fontStyle=0;strokeColor=#B09500;fontColor=#000000;" vertex="1" parent="1">
                    <mxGeometry x="4750" y="-260" width="140" height="30" as="geometry"/>
                </mxCell>
                <mxCell id="495" value="eProteste - Credor" style="rounded=0;whiteSpace=wrap;html=1;fillColor=#e3c800;strokeColor=#B09500;fontColor=#000000;fontStyle=1" vertex="1" parent="1">
                    <mxGeometry x="4720" y="-360" width="680" height="40" as="geometry"/>
                </mxCell>
                <mxCell id="496" value="Ordernar por" style="rounded=1;whiteSpace=wrap;html=1;fillColor=#FFFFCC;fontStyle=0;strokeColor=#B09500;fontColor=#000000;" vertex="1" parent="1">
                    <mxGeometry x="4910" y="-260" width="140" height="30" as="geometry"/>
                </mxCell>
                <mxCell id="497" value="Input de pesquisa" style="rounded=1;whiteSpace=wrap;html=1;fillColor=#FFFFCC;fontStyle=0;strokeColor=#B09500;fontColor=#000000;" vertex="1" parent="1">
                    <mxGeometry x="5070" y="-260" width="140" height="30" as="geometry"/>
                </mxCell>
                <mxCell id="498" value="Filtros" style="text;html=1;align=left;verticalAlign=middle;resizable=0;points=[];autosize=1;strokeColor=none;fillColor=none;fontSize=12;fontColor=#FFFFFF;fontStyle=1" vertex="1" parent="1">
                    <mxGeometry x="4750" y="-300" width="50" height="20" as="geometry"/>
                </mxCell>
                <mxCell id="499" value="Botões" style="text;html=1;align=left;verticalAlign=middle;resizable=0;points=[];autosize=1;strokeColor=none;fillColor=none;fontSize=12;fontColor=#FFFFFF;fontStyle=1" vertex="1" parent="1">
                    <mxGeometry x="4750" y="-200" width="60" height="20" as="geometry"/>
                </mxCell>
                <mxCell id="500" value="Editar em lote" style="rounded=1;whiteSpace=wrap;html=1;fillColor=#FFFFCC;fontStyle=0;strokeColor=#B09500;fontColor=#000000;" vertex="1" parent="1">
                    <mxGeometry x="4750" y="-160" width="140" height="30" as="geometry"/>
                </mxCell>
                <mxCell id="502" value="Filtro avançado" style="rounded=1;whiteSpace=wrap;html=1;fillColor=#FFFFCC;fontStyle=0;strokeColor=#B09500;fontColor=#000000;" vertex="1" parent="1">
                    <mxGeometry x="4910" y="-160" width="140" height="30" as="geometry"/>
                </mxCell>
                <mxCell id="503" value="Opções da dívida" style="text;html=1;align=left;verticalAlign=middle;resizable=0;points=[];autosize=1;strokeColor=none;fillColor=none;fontSize=12;fontColor=#FFFFFF;fontStyle=1" vertex="1" parent="1">
                    <mxGeometry x="4750" y="-100" width="110" height="20" as="geometry"/>
                </mxCell>
                <mxCell id="504" value="Editar" style="rounded=1;whiteSpace=wrap;html=1;fillColor=#FFFFCC;fontStyle=0;strokeColor=#B09500;fontColor=#000000;" vertex="1" parent="1">
                    <mxGeometry x="4750" y="-60" width="140" height="30" as="geometry"/>
                </mxCell>
                <mxCell id="507" value="Cancelar" style="rounded=1;whiteSpace=wrap;html=1;fillColor=#FFFFCC;fontStyle=0;strokeColor=#B09500;fontColor=#000000;" vertex="1" parent="1">
                    <mxGeometry x="5230" y="-60" width="140" height="30" as="geometry"/>
                </mxCell>
                <mxCell id="508" value="Pagar" style="rounded=1;whiteSpace=wrap;html=1;fillColor=#FFFFCC;fontStyle=0;strokeColor=#B09500;fontColor=#000000;" vertex="1" parent="1">
                    <mxGeometry x="5070" y="-60" width="140" height="30" as="geometry"/>
                </mxCell>
                <mxCell id="509" value="Dar baixa" style="rounded=1;whiteSpace=wrap;html=1;fillColor=#FFFFCC;fontStyle=0;strokeColor=#B09500;fontColor=#000000;" vertex="1" parent="1">
                    <mxGeometry x="4910" y="-60" width="140" height="30" as="geometry"/>
                </mxCell>
                <mxCell id="510" value="Cancelar" style="rounded=1;whiteSpace=wrap;html=1;fillColor=#FFFFCC;fontStyle=0;strokeColor=#B09500;fontColor=#000000;" vertex="1" parent="1">
                    <mxGeometry x="4310" y="-160" width="140" height="30" as="geometry"/>
                </mxCell>
                <mxCell id="511" value="Salvar" style="rounded=1;whiteSpace=wrap;html=1;fillColor=#FFFFCC;fontStyle=0;strokeColor=#B09500;fontColor=#000000;" vertex="1" parent="1">
                    <mxGeometry x="4470" y="-160" width="140" height="30" as="geometry"/>
                </mxCell>
                <mxCell id="512" value="Cancelar" style="rounded=1;whiteSpace=wrap;html=1;fillColor=#FFFFCC;fontStyle=0;strokeColor=#B09500;fontColor=#000000;" vertex="1" parent="1">
                    <mxGeometry x="5070" y="-160" width="140" height="30" as="geometry"/>
                </mxCell>
                <mxCell id="513" value="Salvar" style="rounded=1;whiteSpace=wrap;html=1;fillColor=#FFFFCC;fontStyle=0;strokeColor=#B09500;fontColor=#000000;" vertex="1" parent="1">
                    <mxGeometry x="5230" y="-160" width="140" height="30" as="geometry"/>
                </mxCell>
                <mxCell id="515" value="" style="rounded=0;whiteSpace=wrap;html=1;fontColor=#000033;strokeColor=#FFFFFF;fillColor=none;" vertex="1" parent="1">
                    <mxGeometry x="3400" y="-1640" width="520" height="270" as="geometry"/>
                </mxCell>
                <mxCell id="516" value="Quantidade por página" style="rounded=1;whiteSpace=wrap;html=1;fillColor=#FFFFCC;fontStyle=0;strokeColor=#B09500;fontColor=#000000;" vertex="1" parent="1">
                    <mxGeometry x="3430" y="-1540" width="140" height="30" as="geometry"/>
                </mxCell>
                <mxCell id="517" value="eNegocie - Devedor" style="rounded=0;whiteSpace=wrap;html=1;fillColor=#e51400;strokeColor=#B20000;fontColor=#ffffff;fontStyle=1" vertex="1" parent="1">
                    <mxGeometry x="3400" y="-1640" width="520" height="40" as="geometry"/>
                </mxCell>
                <mxCell id="518" value="Ordernar por" style="rounded=1;whiteSpace=wrap;html=1;fillColor=#FFFFCC;fontStyle=0;strokeColor=#B09500;fontColor=#000000;" vertex="1" parent="1">
                    <mxGeometry x="3590" y="-1540" width="140" height="30" as="geometry"/>
                </mxCell>
                <mxCell id="519" value="Input de pesquisa" style="rounded=1;whiteSpace=wrap;html=1;fillColor=#FFFFCC;fontStyle=0;strokeColor=#B09500;fontColor=#000000;" vertex="1" parent="1">
                    <mxGeometry x="3750" y="-1540" width="140" height="30" as="geometry"/>
                </mxCell>
                <mxCell id="520" value="Filtros" style="text;html=1;align=left;verticalAlign=middle;resizable=0;points=[];autosize=1;strokeColor=none;fillColor=none;fontSize=12;fontColor=#FFFFFF;fontStyle=1" vertex="1" parent="1">
                    <mxGeometry x="3430" y="-1580" width="50" height="20" as="geometry"/>
                </mxCell>
                <mxCell id="525" value="Opções da dívida" style="text;html=1;align=left;verticalAlign=middle;resizable=0;points=[];autosize=1;strokeColor=none;fillColor=none;fontSize=12;fontColor=#FFFFFF;fontStyle=1" vertex="1" parent="1">
                    <mxGeometry x="3430" y="-1470" width="110" height="20" as="geometry"/>
                </mxCell>
                <mxCell id="527" value="Conversar" style="rounded=1;whiteSpace=wrap;html=1;fillColor=#FFCCCC;fontStyle=0;strokeColor=#660000;fontColor=#000000;" vertex="1" parent="1">
                    <mxGeometry x="3430" y="-1430" width="140" height="30" as="geometry"/>
                </mxCell>
                <mxCell id="530" value="Pagar" style="rounded=1;whiteSpace=wrap;html=1;fillColor=#FFCCCC;fontStyle=0;strokeColor=#660000;fontColor=#000000;" vertex="1" parent="1">
                    <mxGeometry x="3590" y="-1430" width="140" height="30" as="geometry"/>
                </mxCell>
                <mxCell id="531" value="" style="rounded=0;whiteSpace=wrap;html=1;fontColor=#000033;strokeColor=#FFFFFF;fillColor=none;" vertex="1" parent="1">
                    <mxGeometry x="4000" y="-1640" width="520" height="270" as="geometry"/>
                </mxCell>
                <mxCell id="532" value="Quantidade por página" style="rounded=1;whiteSpace=wrap;html=1;fillColor=#FFCCCC;fontStyle=0;strokeColor=#660000;fontColor=#000000;" vertex="1" parent="1">
                    <mxGeometry x="4030" y="-1540" width="140" height="30" as="geometry"/>
                </mxCell>
                <mxCell id="533" value="eProteste - Devedor" style="rounded=0;whiteSpace=wrap;html=1;fillColor=#e51400;strokeColor=#B20000;fontColor=#ffffff;fontStyle=1" vertex="1" parent="1">
                    <mxGeometry x="4000" y="-1640" width="520" height="40" as="geometry"/>
                </mxCell>
                <mxCell id="534" value="Ordernar por" style="rounded=1;whiteSpace=wrap;html=1;fillColor=#FFCCCC;fontStyle=0;strokeColor=#660000;fontColor=#000000;" vertex="1" parent="1">
                    <mxGeometry x="4190" y="-1540" width="140" height="30" as="geometry"/>
                </mxCell>
                <mxCell id="535" value="Input de pesquisa" style="rounded=1;whiteSpace=wrap;html=1;fillColor=#FFCCCC;fontStyle=0;strokeColor=#660000;fontColor=#000000;" vertex="1" parent="1">
                    <mxGeometry x="4350" y="-1540" width="140" height="30" as="geometry"/>
                </mxCell>
                <mxCell id="536" value="Filtros" style="text;html=1;align=left;verticalAlign=middle;resizable=0;points=[];autosize=1;strokeColor=none;fillColor=none;fontSize=12;fontColor=#FFFFFF;fontStyle=1" vertex="1" parent="1">
                    <mxGeometry x="4030" y="-1580" width="50" height="20" as="geometry"/>
                </mxCell>
                <mxCell id="540" value="Opções da dívida" style="text;html=1;align=left;verticalAlign=middle;resizable=0;points=[];autosize=1;strokeColor=none;fillColor=none;fontSize=12;fontColor=#FFFFFF;fontStyle=1" vertex="1" parent="1">
                    <mxGeometry x="4030" y="-1470" width="110" height="20" as="geometry"/>
                </mxCell>
                <mxCell id="543" value="Pagar" style="rounded=1;whiteSpace=wrap;html=1;fillColor=#FFCCCC;fontStyle=0;strokeColor=#660000;fontColor=#000000;" vertex="1" parent="1">
                    <mxGeometry x="4030" y="-1430" width="140" height="30" as="geometry"/>
                </mxCell>
                <mxCell id="549" value="Quantidade por página" style="rounded=1;whiteSpace=wrap;html=1;fillColor=#FFCCCC;fontStyle=0;strokeColor=#660000;fontColor=#000000;" vertex="1" parent="1">
                    <mxGeometry x="3430" y="-1540" width="140" height="30" as="geometry"/>
                </mxCell>
                <mxCell id="550" value="Ordernar por" style="rounded=1;whiteSpace=wrap;html=1;fillColor=#FFCCCC;fontStyle=0;strokeColor=#660000;fontColor=#000000;" vertex="1" parent="1">
                    <mxGeometry x="3590" y="-1540" width="140" height="30" as="geometry"/>
                </mxCell>
                <mxCell id="551" value="Input de pesquisa" style="rounded=1;whiteSpace=wrap;html=1;fillColor=#FFCCCC;fontStyle=0;strokeColor=#660000;fontColor=#000000;" vertex="1" parent="1">
                    <mxGeometry x="3750" y="-1540" width="140" height="30" as="geometry"/>
                </mxCell>
            </root>
        </mxGraphModel>
    </diagram>
</mxfile>
